
<svg width="620" height="620" viewBox="0 0 620 620" fill="none" xmlns="http://www.w3.org/2000/svg">
<path d="M479.88 162.266C479.88 162.266 426.944 107.57 343.133 110.186C259.321 112.803 187.848 165.776 128.737 207.241C69.626 248.707 53.754 313.137 88.164 363.419C122.574 413.701 177.27 392.534 246.958 425.171C316.646 457.808 329.84 476.346 407.526 468.41C485.212 460.474 544.286 379.304 535.457 292.838C526.628 206.373 479.88 162.266 479.88 162.266Z" fill="#FFA901"/>
<path opacity="0.7" d="M479.88 162.266C479.88 162.266 426.944 107.57 343.133 110.186C259.321 112.803 187.848 165.776 128.737 207.241C69.626 248.707 53.754 313.137 88.164 363.419C122.574 413.701 177.27 392.534 246.958 425.171C316.646 457.808 329.84 476.346 407.526 468.41C485.212 460.474 544.286 379.304 535.457 292.838C526.628 206.373 479.88 162.266 479.88 162.266Z" fill="white"/>
<path d="M500.166 495.132C500.166 498.778 418.326 501.716 317.477 501.716C216.628 501.716 134.776 498.778 134.776 495.132C134.776 491.486 216.616 488.56 317.477 488.56C418.339 488.56 500.166 491.499 500.166 495.132Z" fill="#FFA901"/>
<path opacity="0.6" d="M500.166 495.132C500.166 498.778 418.326 501.716 317.477 501.716C216.628 501.716 134.776 498.778 134.776 495.132C134.776 491.486 216.616 488.56 317.477 488.56C418.339 488.56 500.166 491.499 500.166 495.132Z" fill="white"/>
<path d="M144.671 289.887C144.745 289.887 143.815 285.262 143.716 284.927C142.65 281.629 138.644 275.875 134.751 275.875C134.105 275.895 133.47 276.051 132.889 276.332C132.307 276.613 131.79 277.013 131.373 277.507C130.956 278 130.647 278.575 130.466 279.196C130.285 279.816 130.237 280.468 130.324 281.108C130.609 283.836 133.064 286.167 135.284 287.506C137.888 289.131 144.671 289.887 144.671 289.887Z" fill="#FFA901"/>
<path d="M152.198 258.738C148.54 260.053 146.729 266.823 146.841 270.295C146.841 270.593 147.535 275.255 147.61 275.255H147.684C147.386 276.322 147.076 277.462 146.766 278.727C146.221 281.058 145.626 283.687 145.167 286.614C144.635 289.748 144.287 292.912 144.125 296.087C143.934 299.646 144.054 303.214 144.485 306.751C144.489 306.792 144.489 306.834 144.485 306.875C144.014 305.846 142.575 303.006 142.439 302.796C140.529 299.894 135.148 295.356 131.39 296.434C130.775 296.624 130.206 296.941 129.72 297.365C129.235 297.789 128.844 298.31 128.573 298.894C128.301 299.479 128.156 300.114 128.146 300.758C128.136 301.402 128.261 302.042 128.514 302.634C129.506 305.201 132.482 306.788 134.974 307.508C137.789 308.301 144.063 307.359 144.559 307.284C145.097 310.869 145.867 314.414 146.866 317.899C147.448 319.932 148.106 321.966 148.75 323.987C148.316 323.107 147.907 322.326 147.845 322.226C145.936 319.325 140.554 314.786 136.797 315.865C136.181 316.055 135.612 316.372 135.127 316.796C134.641 317.22 134.25 317.741 133.979 318.325C133.708 318.91 133.562 319.545 133.552 320.189C133.542 320.833 133.667 321.472 133.92 322.065C134.912 324.62 137.888 326.219 140.38 326.926C142.873 327.633 148.279 326.926 149.693 326.752C149.953 327.521 150.214 328.302 150.486 329.071C151.726 332.791 153.066 336.511 154.206 340.157C154.616 341.397 154.963 342.736 155.322 344.026C154.938 343.244 154.591 342.587 154.529 342.5C152.632 339.586 147.238 335.06 143.493 336.139C142.876 336.328 142.306 336.644 141.819 337.067C141.332 337.49 140.94 338.011 140.667 338.596C140.395 339.18 140.248 339.816 140.237 340.461C140.226 341.106 140.351 341.746 140.604 342.339C141.596 344.894 144.584 346.493 147.076 347.2C149.569 347.907 154.442 347.287 156.128 347.051C156.463 348.378 156.798 349.717 157.058 351.019C157.207 351.912 157.418 352.755 157.53 353.673L157.902 356.326C158.075 358.025 158.274 359.774 158.398 361.435C158.497 362.601 158.571 363.704 158.646 364.808C158.261 363.568 157.406 361.001 157.406 360.803C156.033 358.074 153.984 355.743 151.454 354.032C151.313 353.722 151.147 353.423 150.958 353.14C150.604 352.599 150.141 352.139 149.598 351.789C149.055 351.438 148.445 351.206 147.807 351.107C147.169 351.007 146.517 351.043 145.893 351.212C145.269 351.38 144.688 351.678 144.187 352.086C141.248 354.628 141.98 361.596 143.332 364.796C143.406 364.982 144.572 366.941 145.216 368.156L143.642 366.197C142.55 364.87 141.434 363.58 140.244 362.192C139.632 361.547 139.025 360.89 138.421 360.22C137.826 359.55 137.119 358.918 136.462 358.248C134.9 356.748 133.25 355.297 131.502 353.884C132.668 352.929 136.722 349.506 137.888 347.175C139.054 344.844 139.884 341.583 138.669 339.115C138.402 338.528 138.014 338.004 137.532 337.576C137.049 337.149 136.481 336.827 135.866 336.633C135.251 336.439 134.602 336.377 133.962 336.45C133.321 336.523 132.702 336.729 132.147 337.057C128.848 339.115 128.514 346.121 129.369 349.457C129.369 349.668 130.312 352.024 130.82 353.301C129.791 352.445 128.774 351.602 127.708 350.821C124.632 348.452 121.508 346.146 118.284 343.827L115.394 341.682C115.804 341.347 120.714 337.379 122.028 334.763C123.194 332.444 124.025 329.17 122.81 326.715C122.544 326.125 122.157 325.598 121.673 325.168C121.19 324.738 120.622 324.415 120.005 324.219C119.388 324.024 118.737 323.961 118.095 324.034C117.452 324.107 116.832 324.315 116.275 324.644C112.989 326.715 112.654 333.709 113.51 337.044C113.572 337.292 114.849 340.665 115.221 341.508C113.1 339.934 111.005 338.346 109.021 336.697C106.307 334.475 103.739 332.081 101.333 329.53C101.519 329.381 106.665 325.252 108.004 322.586C109.17 320.267 110 316.994 108.785 314.526C108.517 313.942 108.129 313.42 107.646 312.995C107.164 312.57 106.598 312.251 105.984 312.058C105.371 311.865 104.724 311.803 104.085 311.876C103.446 311.949 102.83 312.154 102.275 312.48C98.9768 314.551 98.6543 321.557 99.4975 324.88C99.5595 325.103 100.527 327.682 101.023 328.885L100.837 329.009C98.4812 326.375 96.3648 323.537 94.5128 320.528C93.4836 318.891 92.5784 317.254 91.7352 315.654C92.7768 314.985 97.4764 311.934 98.952 309.603C100.428 307.272 101.556 304.259 100.614 301.68C100.412 301.074 100.086 300.516 99.6573 300.043C99.2285 299.57 98.7058 299.192 98.1226 298.931C97.5394 298.671 96.9084 298.535 96.2699 298.533C95.6313 298.53 94.9991 298.66 94.4135 298.914C90.9167 300.601 89.8132 307.594 90.2968 310.967C90.2968 311.153 90.7927 313.026 91.1647 314.377C90.7927 313.658 90.3959 312.902 90.0611 312.195C88.8211 309.554 87.7672 307.049 86.8992 304.829C86.4156 303.589 85.994 302.349 85.6592 301.308C86.3288 300.13 88.9948 295.306 89.2428 292.628C89.4908 289.949 89.094 286.688 87.0728 284.828C86.6115 284.375 86.06 284.024 85.4543 283.797C84.8485 283.571 84.2019 283.475 83.5565 283.514C82.911 283.554 82.2812 283.729 81.7077 284.028C81.1343 284.327 80.6301 284.743 80.2279 285.25C77.9091 288.362 80.1287 295.021 82.1375 297.848C82.3111 298.096 85.4607 301.568 85.4979 301.568V301.494C85.8451 302.548 86.2172 303.664 86.6636 304.891C87.4944 307.136 88.4492 309.665 89.6768 312.331C90.9649 315.241 92.4223 318.073 94.0415 320.813C95.8472 323.884 97.922 326.789 100.242 329.493L100.328 329.58C99.3612 328.984 96.6084 327.41 96.3728 327.31C93.186 325.934 86.2047 325.165 83.6503 328.092C83.2398 328.59 82.9389 329.17 82.7673 329.793C82.5957 330.416 82.5572 331.068 82.6542 331.706C82.7513 332.345 82.9819 332.956 83.3308 333.5C83.6798 334.044 84.1393 334.508 84.6796 334.862C86.9116 336.449 90.2844 336.102 92.752 335.358C95.542 334.478 100.192 330.224 100.626 329.89C103.051 332.584 105.653 335.115 108.413 337.466C110.013 338.842 111.662 340.182 113.373 341.508C112.518 341.025 111.749 340.591 111.637 340.541C108.45 339.165 101.482 338.396 98.9271 341.322C98.5141 341.82 98.2108 342.399 98.0372 343.021C97.8635 343.644 97.8233 344.296 97.9193 344.935C98.0153 345.575 98.2453 346.186 98.5942 346.73C98.9431 347.275 99.4031 347.739 99.944 348.093C102.188 349.68 105.549 349.333 108.029 348.589C110.509 347.845 114.613 344.249 115.692 343.294L117.626 344.807C120.751 347.2 123.826 349.568 126.864 351.986C127.918 352.842 128.923 353.71 129.94 354.59C129.183 354.156 128.538 353.797 128.427 353.747C125.24 352.383 118.271 351.602 115.717 354.541C115.304 355.038 115 355.617 114.827 356.24C114.653 356.862 114.613 357.514 114.709 358.154C114.805 358.793 115.035 359.405 115.384 359.949C115.733 360.493 116.193 360.957 116.734 361.311C118.978 362.898 122.338 362.551 124.818 361.795C127.298 361.038 131.018 357.802 132.258 356.686C133.263 357.604 134.28 358.534 135.222 359.476C135.842 360.133 136.462 360.716 137.082 361.423L138.855 363.444C139.946 364.758 141.062 366.11 142.092 367.424C142.811 368.342 143.48 369.222 144.162 370.103C143.121 369.247 141.05 367.623 140.852 367.486C137.913 365.639 131.142 363.828 128.166 366.333C127.686 366.765 127.302 367.292 127.039 367.882C126.776 368.472 126.64 369.11 126.64 369.756C126.64 370.401 126.776 371.04 127.039 371.629C127.302 372.219 127.686 372.747 128.166 373.178C130.138 375.088 133.511 375.286 136.078 374.889C138.892 374.455 144.001 371.169 144.634 370.71C145.75 372.174 146.816 373.612 147.808 374.976C151.243 379.725 153.921 383.817 155.756 386.694L155.942 386.992L158.323 385.838L157.951 385.268C156.029 382.404 153.239 378.336 149.656 373.612C148.54 372.112 147.3 370.549 146.022 368.937C147.349 367.489 148.591 365.965 149.742 364.374C152.47 365.44 158.162 365.478 158.894 365.478C159.018 367.325 159.117 369.111 159.179 370.797C159.427 376.662 159.402 381.548 159.352 384.958C159.352 385.094 159.352 385.218 159.352 385.355L161.969 384.115C161.969 380.717 161.832 376.129 161.498 370.698C161.374 368.838 161.212 366.842 161.039 364.796C161.758 364.622 167.673 363.097 169.905 361.311C171.938 359.699 174.071 357.07 173.997 354.33C174.002 353.684 173.871 353.045 173.612 352.453C173.354 351.861 172.973 351.33 172.496 350.895C172.019 350.46 171.455 350.13 170.842 349.927C170.229 349.724 169.58 349.653 168.938 349.717C165.069 350.213 161.845 356.426 161.212 359.848C161.212 360.046 161.002 362.328 160.927 363.68C160.853 362.849 160.778 362.043 160.692 361.2C160.518 359.501 160.295 357.814 160.072 355.992C159.923 355.124 159.774 354.231 159.638 353.338C159.501 352.445 159.266 351.528 159.08 350.622C158.608 348.502 158.038 346.382 157.406 344.261C158.894 344.112 164.176 343.492 166.433 342.19C168.69 340.888 171.182 338.632 171.529 335.904C171.631 335.266 171.597 334.615 171.431 333.992C171.265 333.368 170.969 332.787 170.563 332.285C170.157 331.783 169.651 331.373 169.076 331.08C168.501 330.787 167.871 330.618 167.226 330.584C163.333 330.485 159.191 336.139 158.05 339.425C157.976 339.624 157.418 342.066 157.145 343.418C156.748 342.178 156.376 340.876 155.905 339.599C154.665 335.879 153.264 332.246 151.9 328.563L150.66 325.178C151.193 325.178 157.48 324.533 160.01 323.07C162.254 321.83 164.759 319.511 165.106 316.783C165.21 316.145 165.178 315.493 165.012 314.869C164.846 314.245 164.551 313.662 164.145 313.16C163.739 312.658 163.231 312.247 162.655 311.955C162.079 311.663 161.448 311.495 160.803 311.463C156.91 311.364 152.768 317.031 151.627 320.304C151.54 320.552 150.747 324.024 150.586 324.979C149.693 322.499 148.825 320.019 148.106 317.539C147.07 314.187 146.242 310.775 145.626 307.322C145.874 307.322 152.446 306.702 155.037 305.214C157.282 303.912 159.786 301.642 160.134 298.914C160.235 298.276 160.202 297.624 160.034 297C159.867 296.375 159.57 295.793 159.163 295.291C158.756 294.79 158.248 294.379 157.672 294.087C157.095 293.794 156.464 293.627 155.818 293.595C151.937 293.496 147.796 299.162 146.655 302.436C146.58 302.647 145.973 305.338 145.712 306.615H145.489C144.977 303.122 144.778 299.591 144.894 296.062C144.894 294.128 145.08 292.268 145.266 290.47C146.506 290.47 152.148 290.47 154.628 289.404C157.108 288.337 159.737 286.378 160.382 283.712C160.554 283.087 160.592 282.434 160.494 281.793C160.395 281.153 160.163 280.541 159.812 279.996C159.461 279.452 158.999 278.988 158.456 278.635C157.913 278.281 157.301 278.047 156.662 277.946C152.805 277.425 148.068 282.596 146.58 285.721C146.494 285.894 145.861 287.717 145.415 289.056C145.502 288.238 145.588 287.407 145.7 286.576C146.097 283.662 146.63 281.021 147.126 278.678C147.424 277.351 147.709 276.198 147.994 275.044C149.234 274.424 154.095 271.882 155.769 269.812C157.443 267.741 158.906 264.777 158.249 262.111C158.112 261.469 157.84 260.864 157.45 260.336C157.06 259.809 156.562 259.37 155.989 259.051C155.416 258.731 154.781 258.538 154.127 258.484C153.473 258.43 152.815 258.517 152.198 258.738Z" fill="#FFA901"/>
<path d="M81.9144 318.68C84.9524 318.556 91.0284 315.431 91.0408 315.431C91.0532 315.431 87.7672 312.058 87.5316 311.86C84.816 309.702 78.2936 307.111 75.0572 309.268C74.5297 309.64 74.0864 310.119 73.7561 310.673C73.4257 311.228 73.2157 311.846 73.1397 312.486C73.0637 313.127 73.1233 313.777 73.3148 314.393C73.5063 315.01 73.8253 315.579 74.2512 316.064C75.9996 318.184 79.36 318.779 81.9144 318.68Z" fill="#FFA901"/>
<g opacity="0.5">
<path d="M144.671 289.887C144.745 289.887 143.815 285.262 143.716 284.927C142.65 281.629 138.644 275.875 134.751 275.875C134.105 275.895 133.47 276.051 132.889 276.332C132.307 276.613 131.79 277.013 131.373 277.507C130.956 278 130.647 278.575 130.466 279.196C130.285 279.816 130.237 280.468 130.324 281.108C130.609 283.836 133.064 286.167 135.284 287.506C137.888 289.131 144.671 289.887 144.671 289.887Z" fill="white"/>
<path d="M152.198 258.738C148.54 260.053 146.729 266.823 146.841 270.295C146.841 270.593 147.535 275.255 147.61 275.255H147.684C147.386 276.322 147.076 277.462 146.766 278.727C146.221 281.058 145.626 283.687 145.167 286.614C144.635 289.748 144.287 292.912 144.125 296.087C143.934 299.646 144.054 303.214 144.485 306.751C144.489 306.792 144.489 306.834 144.485 306.875C144.014 305.846 142.575 303.006 142.439 302.796C140.529 299.894 135.148 295.356 131.39 296.434C130.775 296.624 130.206 296.941 129.72 297.365C129.235 297.789 128.844 298.31 128.573 298.894C128.301 299.479 128.156 300.114 128.146 300.758C128.136 301.402 128.261 302.042 128.514 302.634C129.506 305.201 132.482 306.788 134.974 307.508C137.789 308.301 144.063 307.359 144.559 307.284C145.097 310.869 145.867 314.414 146.866 317.899C147.448 319.932 148.106 321.966 148.75 323.987C148.316 323.107 147.907 322.326 147.845 322.226C145.936 319.325 140.554 314.786 136.797 315.865C136.181 316.055 135.612 316.372 135.127 316.796C134.641 317.22 134.25 317.741 133.979 318.325C133.708 318.91 133.562 319.545 133.552 320.189C133.542 320.833 133.667 321.472 133.92 322.065C134.912 324.62 137.888 326.219 140.38 326.926C142.873 327.633 148.279 326.926 149.693 326.752C149.953 327.521 150.214 328.302 150.486 329.071C151.726 332.791 153.066 336.511 154.206 340.157C154.616 341.397 154.963 342.736 155.322 344.026C154.938 343.244 154.591 342.587 154.529 342.5C152.632 339.586 147.238 335.06 143.493 336.139C142.876 336.328 142.306 336.644 141.819 337.067C141.332 337.49 140.94 338.011 140.667 338.596C140.395 339.18 140.248 339.816 140.237 340.461C140.226 341.106 140.351 341.746 140.604 342.339C141.596 344.894 144.584 346.493 147.076 347.2C149.569 347.907 154.442 347.287 156.128 347.051C156.463 348.378 156.798 349.717 157.058 351.019C157.207 351.912 157.418 352.755 157.53 353.673L157.902 356.326C158.075 358.025 158.274 359.774 158.398 361.435C158.497 362.601 158.571 363.704 158.646 364.808C158.261 363.568 157.406 361.001 157.406 360.803C156.033 358.074 153.984 355.743 151.454 354.032C151.313 353.722 151.147 353.423 150.958 353.14C150.604 352.599 150.141 352.139 149.598 351.789C149.055 351.438 148.445 351.206 147.807 351.107C147.169 351.007 146.517 351.043 145.893 351.212C145.269 351.38 144.688 351.678 144.187 352.086C141.248 354.628 141.98 361.596 143.332 364.796C143.406 364.982 144.572 366.941 145.216 368.156L143.642 366.197C142.55 364.87 141.434 363.58 140.244 362.192C139.632 361.547 139.025 360.89 138.421 360.22C137.826 359.55 137.119 358.918 136.462 358.248C134.9 356.748 133.25 355.297 131.502 353.884C132.668 352.929 136.722 349.506 137.888 347.175C139.054 344.844 139.884 341.583 138.669 339.115C138.402 338.528 138.014 338.004 137.532 337.576C137.049 337.149 136.481 336.827 135.866 336.633C135.251 336.439 134.602 336.377 133.962 336.45C133.321 336.523 132.702 336.729 132.147 337.057C128.848 339.115 128.514 346.121 129.369 349.457C129.369 349.668 130.312 352.024 130.82 353.301C129.791 352.445 128.774 351.602 127.708 350.821C124.632 348.452 121.508 346.146 118.284 343.827L115.394 341.682C115.804 341.347 120.714 337.379 122.028 334.763C123.194 332.444 124.025 329.17 122.81 326.715C122.544 326.125 122.157 325.598 121.673 325.168C121.19 324.738 120.622 324.415 120.005 324.219C119.388 324.024 118.737 323.961 118.095 324.034C117.452 324.107 116.832 324.315 116.275 324.644C112.989 326.715 112.654 333.709 113.51 337.044C113.572 337.292 114.849 340.665 115.221 341.508C113.1 339.934 111.005 338.346 109.021 336.697C106.307 334.475 103.739 332.081 101.333 329.53C101.519 329.381 106.665 325.252 108.004 322.586C109.17 320.267 110 316.994 108.785 314.526C108.517 313.942 108.129 313.42 107.646 312.995C107.164 312.57 106.598 312.251 105.984 312.058C105.371 311.865 104.724 311.803 104.085 311.876C103.446 311.949 102.83 312.154 102.275 312.48C98.9768 314.551 98.6543 321.557 99.4975 324.88C99.5595 325.103 100.527 327.682 101.023 328.885L100.837 329.009C98.4812 326.375 96.3648 323.537 94.5128 320.528C93.4836 318.891 92.5784 317.254 91.7352 315.654C92.7768 314.985 97.4764 311.934 98.952 309.603C100.428 307.272 101.556 304.259 100.614 301.68C100.412 301.074 100.086 300.516 99.6573 300.043C99.2285 299.57 98.7058 299.192 98.1226 298.931C97.5394 298.671 96.9084 298.535 96.2699 298.533C95.6313 298.53 94.9991 298.66 94.4135 298.914C90.9167 300.601 89.8132 307.594 90.2968 310.967C90.2968 311.153 90.7927 313.026 91.1647 314.377C90.7927 313.658 90.3959 312.902 90.0611 312.195C88.8211 309.554 87.7672 307.049 86.8992 304.829C86.4156 303.589 85.994 302.349 85.6592 301.308C86.3288 300.13 88.9948 295.306 89.2428 292.628C89.4908 289.949 89.094 286.688 87.0728 284.828C86.6115 284.375 86.06 284.024 85.4543 283.797C84.8485 283.571 84.2019 283.475 83.5565 283.514C82.911 283.554 82.2812 283.729 81.7077 284.028C81.1343 284.327 80.6301 284.743 80.2279 285.25C77.9091 288.362 80.1287 295.021 82.1375 297.848C82.3111 298.096 85.4607 301.568 85.4979 301.568V301.494C85.8451 302.548 86.2172 303.664 86.6636 304.891C87.4944 307.136 88.4492 309.665 89.6768 312.331C90.9649 315.241 92.4223 318.073 94.0415 320.813C95.8472 323.884 97.922 326.789 100.242 329.493L100.328 329.58C99.3612 328.984 96.6084 327.41 96.3728 327.31C93.186 325.934 86.2047 325.165 83.6503 328.092C83.2398 328.59 82.9389 329.17 82.7673 329.793C82.5957 330.416 82.5572 331.068 82.6542 331.706C82.7513 332.345 82.9819 332.956 83.3308 333.5C83.6798 334.044 84.1393 334.508 84.6796 334.862C86.9116 336.449 90.2844 336.102 92.752 335.358C95.542 334.478 100.192 330.224 100.626 329.89C103.051 332.584 105.653 335.115 108.413 337.466C110.013 338.842 111.662 340.182 113.373 341.508C112.518 341.025 111.749 340.591 111.637 340.541C108.45 339.165 101.482 338.396 98.9271 341.322C98.5141 341.82 98.2108 342.399 98.0372 343.021C97.8635 343.644 97.8233 344.296 97.9193 344.935C98.0153 345.575 98.2453 346.186 98.5942 346.73C98.9431 347.275 99.4031 347.739 99.944 348.093C102.188 349.68 105.549 349.333 108.029 348.589C110.509 347.845 114.613 344.249 115.692 343.294L117.626 344.807C120.751 347.2 123.826 349.568 126.864 351.986C127.918 352.842 128.923 353.71 129.94 354.59C129.183 354.156 128.538 353.797 128.427 353.747C125.24 352.383 118.271 351.602 115.717 354.541C115.304 355.038 115 355.617 114.827 356.24C114.653 356.862 114.613 357.514 114.709 358.154C114.805 358.793 115.035 359.405 115.384 359.949C115.733 360.493 116.193 360.957 116.734 361.311C118.978 362.898 122.338 362.551 124.818 361.795C127.298 361.038 131.018 357.802 132.258 356.686C133.263 357.604 134.28 358.534 135.222 359.476C135.842 360.133 136.462 360.716 137.082 361.423L138.855 363.444C139.946 364.758 141.062 366.11 142.092 367.424C142.811 368.342 143.48 369.222 144.162 370.103C143.121 369.247 141.05 367.623 140.852 367.486C137.913 365.639 131.142 363.828 128.166 366.333C127.686 366.765 127.302 367.292 127.039 367.882C126.776 368.472 126.64 369.11 126.64 369.756C126.64 370.401 126.776 371.04 127.039 371.629C127.302 372.219 127.686 372.747 128.166 373.178C130.138 375.088 133.511 375.286 136.078 374.889C138.892 374.455 144.001 371.169 144.634 370.71C145.75 372.174 146.816 373.612 147.808 374.976C151.243 379.725 153.921 383.817 155.756 386.694L155.942 386.992L158.323 385.838L157.951 385.268C156.029 382.404 153.239 378.336 149.656 373.612C148.54 372.112 147.3 370.549 146.022 368.937C147.349 367.489 148.591 365.965 149.742 364.374C152.47 365.44 158.162 365.478 158.894 365.478C159.018 367.325 159.117 369.111 159.179 370.797C159.427 376.662 159.402 381.548 159.352 384.958C159.352 385.094 159.352 385.218 159.352 385.355L161.969 384.115C161.969 380.717 161.832 376.129 161.498 370.698C161.374 368.838 161.212 366.842 161.039 364.796C161.758 364.622 167.673 363.097 169.905 361.311C171.938 359.699 174.071 357.07 173.997 354.33C174.002 353.684 173.871 353.045 173.612 352.453C173.354 351.861 172.973 351.33 172.496 350.895C172.019 350.46 171.455 350.13 170.842 349.927C170.229 349.724 169.58 349.653 168.938 349.717C165.069 350.213 161.845 356.426 161.212 359.848C161.212 360.046 161.002 362.328 160.927 363.68C160.853 362.849 160.778 362.043 160.692 361.2C160.518 359.501 160.295 357.814 160.072 355.992C159.923 355.124 159.774 354.231 159.638 353.338C159.501 352.445 159.266 351.528 159.08 350.622C158.608 348.502 158.038 346.382 157.406 344.261C158.894 344.112 164.176 343.492 166.433 342.19C168.69 340.888 171.182 338.632 171.529 335.904C171.631 335.266 171.597 334.615 171.431 333.992C171.265 333.368 170.969 332.787 170.563 332.285C170.157 331.783 169.651 331.373 169.076 331.08C168.501 330.787 167.871 330.618 167.226 330.584C163.333 330.485 159.191 336.139 158.05 339.425C157.976 339.624 157.418 342.066 157.145 343.418C156.748 342.178 156.376 340.876 155.905 339.599C154.665 335.879 153.264 332.246 151.9 328.563L150.66 325.178C151.193 325.178 157.48 324.533 160.01 323.07C162.254 321.83 164.759 319.511 165.106 316.783C165.21 316.145 165.178 315.493 165.012 314.869C164.846 314.245 164.551 313.662 164.145 313.16C163.739 312.658 163.231 312.247 162.655 311.955C162.079 311.663 161.448 311.495 160.803 311.463C156.91 311.364 152.768 317.031 151.627 320.304C151.54 320.552 150.747 324.024 150.586 324.979C149.693 322.499 148.825 320.019 148.106 317.539C147.07 314.187 146.242 310.775 145.626 307.322C145.874 307.322 152.446 306.702 155.037 305.214C157.282 303.912 159.786 301.642 160.134 298.914C160.235 298.276 160.202 297.624 160.034 297C159.867 296.375 159.57 295.793 159.163 295.291C158.756 294.79 158.248 294.379 157.672 294.087C157.095 293.794 156.464 293.627 155.818 293.595C151.937 293.496 147.796 299.162 146.655 302.436C146.58 302.647 145.973 305.338 145.712 306.615H145.489C144.977 303.122 144.778 299.591 144.894 296.062C144.894 294.128 145.08 292.268 145.266 290.47C146.506 290.47 152.148 290.47 154.628 289.404C157.108 288.337 159.737 286.378 160.382 283.712C160.554 283.087 160.592 282.434 160.494 281.793C160.395 281.153 160.163 280.541 159.812 279.996C159.461 279.452 158.999 278.988 158.456 278.635C157.913 278.281 157.301 278.047 156.662 277.946C152.805 277.425 148.068 282.596 146.58 285.721C146.494 285.894 145.861 287.717 145.415 289.056C145.502 288.238 145.588 287.407 145.7 286.576C146.097 283.662 146.63 281.021 147.126 278.678C147.424 277.351 147.709 276.198 147.994 275.044C149.234 274.424 154.095 271.882 155.769 269.812C157.443 267.741 158.906 264.777 158.249 262.111C158.112 261.469 157.84 260.864 157.45 260.336C157.06 259.809 156.562 259.37 155.989 259.051C155.416 258.731 154.781 258.538 154.127 258.484C153.473 258.43 152.815 258.517 152.198 258.738Z" fill="white"/>
<path d="M81.9144 318.68C84.9524 318.556 91.0284 315.431 91.0408 315.431C91.0532 315.431 87.7672 312.058 87.5316 311.86C84.816 309.702 78.2936 307.111 75.0572 309.268C74.5297 309.64 74.0864 310.119 73.7561 310.673C73.4257 311.228 73.2157 311.845 73.1397 312.486C73.0637 313.127 73.1233 313.777 73.3148 314.393C73.5063 315.009 73.8253 315.579 74.2512 316.064C75.9996 318.184 79.36 318.779 81.9144 318.68Z" fill="white"/>
</g>
<path d="M117.391 394.754C117.391 394.754 135.83 350.312 146.146 352.247C156.463 354.181 128.452 423.1 128.452 423.1C128.452 423.1 160.89 361.906 183.012 361.906C205.133 361.906 174.902 429.536 146.89 452.079C146.89 452.079 191.121 404.414 216.938 414.73C242.755 425.047 165.317 473.345 165.317 473.345C165.317 473.345 210.292 459.172 205.133 470.121C199.975 481.07 186 483.005 186 483.005L236.84 485.584H59.8796L99.696 481.715C99.696 481.715 58.404 461.106 69.44 452.724C80.476 444.342 104.83 462.384 104.83 462.384C104.83 462.384 62.806 416.008 70.9156 398.623C79.0252 381.238 115.159 430.181 115.159 430.181C115.159 430.181 85.6592 367.71 91.5988 356.748C97.5384 345.786 117.391 394.754 117.391 394.754Z" fill="#FFA901"/>
<path opacity="0.4" d="M117.391 394.754C117.391 394.754 135.83 350.312 146.146 352.247C156.463 354.181 128.452 423.1 128.452 423.1C128.452 423.1 160.89 361.906 183.012 361.906C205.133 361.906 174.902 429.536 146.89 452.079C146.89 452.079 191.121 404.414 216.938 414.73C242.755 425.047 165.317 473.345 165.317 473.345C165.317 473.345 210.292 459.172 205.133 470.121C199.975 481.07 186 483.005 186 483.005L236.84 485.584H59.8796L99.696 481.715C99.696 481.715 58.404 461.106 69.44 452.724C80.476 444.342 104.83 462.384 104.83 462.384C104.83 462.384 62.806 416.008 70.9156 398.623C79.0252 381.238 115.159 430.181 115.159 430.181C115.159 430.181 85.6592 367.71 91.5988 356.748C97.5384 345.786 117.391 394.754 117.391 394.754Z" fill="white"/>
<path d="M111.501 397.098C127.72 445.024 127.72 478.938 127.72 478.938C127.72 478.938 108.55 479.682 88.6352 464.938" stroke="#263238" stroke-linecap="round" stroke-linejoin="round"/>
<path d="M119.61 422.902C122.949 408.575 127.384 394.525 132.878 380.878" stroke="#263238" stroke-linecap="round" stroke-linejoin="round"/>
<path d="M167.536 394.89L126.244 456.084C126.244 456.084 98.2204 432.524 88.6352 419.219" stroke="#263238" stroke-linecap="round" stroke-linejoin="round"/>
<path d="M126.976 470.828C126.976 470.828 170.475 450.182 188.182 438.39" stroke="#263238" stroke-linecap="round" stroke-linejoin="round"/>
<path d="M489.329 289.887C489.254 289.887 490.197 285.262 490.284 284.927C491.35 281.629 495.368 275.875 499.249 275.875C499.895 275.895 500.529 276.051 501.111 276.332C501.693 276.613 502.209 277.013 502.627 277.507C503.044 278 503.353 278.575 503.534 279.196C503.714 279.816 503.763 280.468 503.676 281.108C503.39 283.836 500.935 286.167 498.716 287.506C496.112 289.131 489.329 289.887 489.329 289.887Z" fill="#FFA901"/>
<path d="M481.802 258.738C485.46 260.053 487.283 266.823 487.159 270.295C487.159 270.593 486.464 275.255 486.402 275.255H486.328C486.613 276.322 486.923 277.462 487.233 278.727C487.779 281.058 488.374 283.687 488.833 286.614C489.365 289.748 489.713 292.912 489.874 296.087C490.072 299.645 489.952 303.214 489.515 306.751C489.51 306.792 489.51 306.834 489.515 306.875C489.998 305.846 491.437 303.006 491.561 302.796C493.47 299.894 498.852 295.356 502.609 296.434C503.226 296.623 503.796 296.939 504.283 297.362C504.769 297.786 505.161 298.307 505.433 298.892C505.704 299.477 505.849 300.113 505.858 300.757C505.868 301.402 505.741 302.042 505.486 302.634C504.494 305.201 501.518 306.788 499.026 307.508C496.211 308.301 489.936 307.359 489.44 307.284C488.909 310.87 488.138 314.416 487.134 317.899C486.555 319.932 485.927 321.962 485.249 323.987C485.683 323.107 486.092 322.326 486.154 322.226C488.064 319.325 493.458 314.786 497.203 315.865C497.82 316.053 498.39 316.369 498.876 316.793C499.363 317.216 499.755 317.738 500.026 318.323C500.298 318.908 500.443 319.543 500.452 320.188C500.461 320.833 500.334 321.473 500.08 322.065C499.088 324.62 496.112 326.219 493.619 326.926C491.127 327.633 485.72 326.926 484.307 326.752L483.526 329.071C482.286 332.791 480.934 336.511 479.806 340.157C479.396 341.397 479.037 342.736 478.677 344.026C479.074 343.244 479.409 342.587 479.471 342.5C481.38 339.586 486.762 335.06 490.507 336.139C491.124 336.328 491.694 336.644 492.181 337.067C492.668 337.49 493.06 338.011 493.332 338.596C493.605 339.18 493.751 339.816 493.762 340.461C493.773 341.106 493.648 341.746 493.396 342.339C492.404 344.894 489.416 346.493 486.923 347.2C484.431 347.907 479.558 347.287 477.871 347.051C477.536 348.378 477.214 349.717 476.954 351.019C476.792 351.912 476.582 352.755 476.47 353.673L476.098 356.326C475.924 358.025 475.726 359.774 475.602 361.435C475.503 362.601 475.428 363.704 475.354 364.808C475.751 363.568 476.594 361.001 476.656 360.803C478.033 358.077 480.081 355.747 482.608 354.032C482.748 353.719 482.919 353.42 483.116 353.14C483.467 352.598 483.929 352.136 484.471 351.785C485.012 351.434 485.622 351.201 486.26 351.101C486.898 351.002 487.549 351.038 488.172 351.208C488.795 351.377 489.375 351.676 489.874 352.086C492.826 354.628 492.082 361.596 490.73 364.796C490.656 364.982 489.552 366.941 488.845 368.156C489.378 367.499 489.874 366.916 490.432 366.197C491.511 364.87 492.627 363.58 493.818 362.192L495.64 360.22C496.236 359.55 496.955 358.918 497.612 358.248C499.162 356.748 500.811 355.297 502.51 353.884C501.357 352.929 497.29 349.506 496.124 347.175C494.958 344.844 494.128 341.583 495.343 339.115C495.61 338.526 495.998 338.001 496.481 337.572C496.965 337.143 497.534 336.821 498.151 336.627C498.767 336.433 499.418 336.371 500.06 336.445C500.702 336.519 501.321 336.727 501.878 337.057C505.164 339.115 505.498 346.121 504.643 349.457C504.643 349.668 503.7 352.024 503.192 353.301C504.221 352.445 505.238 351.602 506.304 350.821C509.38 348.452 512.566 346.146 515.728 343.827L518.618 341.682C518.208 341.347 513.298 337.379 511.984 334.763C510.83 332.444 509.987 329.17 511.202 326.715C511.468 326.125 511.855 325.598 512.339 325.168C512.822 324.738 513.39 324.415 514.007 324.219C514.624 324.024 515.275 323.961 515.917 324.034C516.56 324.107 517.18 324.315 517.737 324.644C521.036 326.715 521.358 333.709 520.502 337.044C520.44 337.292 519.163 340.665 518.804 341.508C520.912 339.934 523.007 338.346 525.004 336.697C527.717 334.475 530.285 332.081 532.692 329.53C532.506 329.381 527.36 325.252 526.02 322.586C524.855 320.267 524.024 316.994 525.239 314.526C525.505 313.938 525.892 313.412 526.374 312.984C526.856 312.555 527.424 312.232 528.039 312.037C528.654 311.842 529.303 311.778 529.945 311.85C530.586 311.922 531.205 312.128 531.762 312.455C535.06 314.526 535.395 321.532 534.539 324.855C534.477 325.078 533.51 327.658 533.026 328.86C533.083 328.909 533.146 328.95 533.212 328.984C535.564 326.351 537.677 323.512 539.524 320.503C540.566 318.866 541.458 317.229 542.302 315.63C541.26 314.96 536.56 311.91 535.085 309.578C533.609 307.247 532.493 304.234 533.423 301.655C533.624 301.041 533.951 300.476 534.385 299.998C534.818 299.519 535.347 299.137 535.938 298.876C536.528 298.615 537.167 298.481 537.813 298.484C538.459 298.486 539.096 298.624 539.685 298.89C543.194 300.576 544.286 307.57 543.802 310.942C543.802 311.128 543.306 313.001 542.946 314.352C543.306 313.633 543.703 312.877 544.038 312.17C545.278 309.529 546.332 307.024 547.2 304.804C547.696 303.564 548.105 302.324 548.44 301.283C547.758 300.105 545.104 295.281 544.844 292.603C544.583 289.924 545.005 286.663 547.026 284.803C547.486 284.35 548.037 283.999 548.641 283.773C549.246 283.547 549.892 283.451 550.536 283.49C551.181 283.53 551.81 283.705 552.382 284.004C552.954 284.303 553.457 284.719 553.858 285.225C556.19 288.337 553.97 294.996 551.961 297.823C551.788 298.071 548.626 301.543 548.588 301.543V301.469C548.241 302.523 547.869 303.639 547.423 304.866C546.604 307.111 545.65 309.64 544.422 312.306C543.124 315.214 541.663 318.046 540.045 320.788C538.239 323.859 536.164 326.764 533.845 329.468L533.758 329.555C534.725 328.96 537.478 327.385 537.714 327.286C540.913 325.909 547.882 325.14 550.436 328.067C550.847 328.565 551.149 329.144 551.321 329.766C551.494 330.388 551.534 331.04 551.438 331.679C551.342 332.317 551.112 332.929 550.765 333.473C550.417 334.017 549.958 334.482 549.419 334.837C547.175 336.424 543.814 336.077 541.334 335.333C538.544 334.453 533.894 330.2 533.473 329.865C531.047 332.56 528.446 335.091 525.686 337.441C524.086 338.818 522.424 340.157 520.726 341.484C521.581 341 522.35 340.566 522.462 340.516C525.648 339.14 532.617 338.371 535.172 341.298C535.585 341.795 535.888 342.374 536.062 342.996C536.235 343.619 536.275 344.271 536.179 344.911C536.083 345.55 535.853 346.161 535.505 346.706C535.156 347.25 534.696 347.714 534.155 348.068C531.923 349.655 528.55 349.308 526.082 348.564C523.615 347.82 519.486 344.224 518.419 343.269C517.762 343.778 517.179 344.286 516.472 344.782C513.36 347.175 510.272 349.544 507.234 351.962C506.18 352.817 505.176 353.685 504.159 354.566L505.672 353.722C508.859 352.358 515.828 351.577 518.382 354.516C518.795 355.013 519.098 355.592 519.272 356.215C519.446 356.837 519.486 357.49 519.39 358.129C519.294 358.768 519.064 359.38 518.715 359.924C518.366 360.468 517.906 360.932 517.365 361.286C515.121 362.874 511.76 362.526 509.293 361.77C506.825 361.014 503.093 357.777 501.853 356.661C500.848 357.579 499.832 358.509 498.902 359.451C498.269 360.108 497.662 360.691 497.042 361.398L495.256 363.419C494.177 364.734 493.049 366.085 492.02 367.4C491.3 368.317 490.631 369.198 489.961 370.078C490.99 369.222 493.074 367.598 493.26 367.462C496.198 365.614 502.981 363.804 505.945 366.308C506.425 366.74 506.809 367.268 507.072 367.857C507.335 368.447 507.471 369.085 507.471 369.731C507.471 370.376 507.335 371.015 507.072 371.604C506.809 372.194 506.425 372.722 505.945 373.153C503.961 375.063 500.588 375.261 498.034 374.864C495.206 374.43 490.098 371.144 489.465 370.686C488.349 372.149 487.283 373.587 486.291 374.951C482.856 379.7 480.178 383.792 478.342 386.669C478.342 386.781 478.218 386.868 478.156 386.967L475.776 385.814L476.148 385.243C478.07 382.379 480.872 378.312 484.443 373.587C485.572 372.087 486.799 370.524 488.076 368.912C486.747 367.466 485.505 365.943 484.356 364.349C481.616 365.416 475.937 365.453 475.193 365.453C475.081 367.3 474.982 369.086 474.908 370.772C474.66 376.638 474.684 381.523 474.746 384.933V385.33L472.13 384.09C472.13 380.692 472.266 376.104 472.614 370.673C472.725 368.813 472.886 366.817 473.072 364.771C472.341 364.597 466.426 363.072 464.194 361.286C462.173 359.674 460.04 357.046 460.114 354.305C460.107 353.659 460.237 353.018 460.495 352.426C460.753 351.833 461.133 351.301 461.611 350.866C462.089 350.43 462.653 350.101 463.267 349.898C463.881 349.696 464.531 349.626 465.174 349.692C469.03 350.188 472.266 356.401 472.899 359.823C472.899 360.022 473.097 362.303 473.172 363.655C473.258 362.824 473.32 362.018 473.42 361.175C473.581 359.476 473.804 357.79 474.04 355.967C474.176 355.099 474.325 354.206 474.461 353.313C474.598 352.42 474.833 351.503 475.019 350.598C475.49 348.477 476.061 346.357 476.693 344.236C475.205 344.088 469.935 343.468 467.666 342.166C465.397 340.864 462.917 338.607 462.582 335.879C462.478 335.241 462.51 334.589 462.676 333.965C462.841 333.341 463.137 332.758 463.543 332.256C463.949 331.754 464.457 331.343 465.033 331.051C465.609 330.759 466.24 330.591 466.885 330.559C470.766 330.46 474.908 336.114 476.048 339.4C476.123 339.599 476.681 342.042 476.954 343.393C477.35 342.153 477.722 340.851 478.194 339.574C479.434 335.854 480.835 332.221 482.199 328.538C482.62 327.41 483.017 326.281 483.439 325.153C482.906 325.153 476.619 324.508 474.089 323.045C471.845 321.805 469.34 319.486 468.993 316.758C468.891 316.121 468.924 315.469 469.091 314.846C469.257 314.223 469.553 313.641 469.959 313.139C470.365 312.638 470.871 312.227 471.446 311.934C472.021 311.641 472.651 311.472 473.296 311.438C477.189 311.339 481.331 317.006 482.472 320.28C482.558 320.528 483.352 324 483.513 324.954C484.406 322.474 485.286 319.994 485.993 317.514C487.04 314.166 487.869 310.753 488.473 307.297C488.225 307.297 481.666 306.677 479.074 305.189C476.817 303.887 474.312 301.618 473.978 298.89C473.874 298.252 473.906 297.6 474.071 296.976C474.237 296.352 474.533 295.769 474.939 295.267C475.345 294.765 475.853 294.354 476.428 294.062C477.004 293.769 477.635 293.602 478.28 293.57C482.162 293.471 486.303 299.138 487.444 302.411C487.518 302.622 488.138 305.313 488.399 306.59H488.61C489.122 303.097 489.321 299.566 489.205 296.038C489.205 294.103 489.019 292.243 488.833 290.445C487.593 290.445 481.963 290.445 479.483 289.379C477.003 288.312 474.362 286.353 473.717 283.687C473.545 283.063 473.507 282.409 473.605 281.769C473.703 281.128 473.936 280.516 474.287 279.972C474.638 279.427 475.1 278.963 475.643 278.61C476.186 278.257 476.797 278.022 477.437 277.921C481.294 277.4 486.03 282.571 487.531 285.696C487.605 285.87 488.25 287.692 488.684 289.032C488.597 288.213 488.51 287.382 488.399 286.552C488.014 283.638 487.469 280.996 486.973 278.653C486.675 277.326 486.39 276.173 486.105 275.02C484.865 274.4 480.004 271.858 478.342 269.787C476.681 267.716 475.193 264.752 475.862 262.086C476.004 261.46 476.276 260.87 476.66 260.355C477.043 259.84 477.531 259.411 478.09 259.096C478.65 258.78 479.269 258.586 479.908 258.524C480.547 258.463 481.193 258.536 481.802 258.738Z" fill="#FFA901"/>
<path d="M552.085 318.68C549.047 318.556 542.971 315.431 542.971 315.431C542.971 315.431 546.232 312.058 546.468 311.86C549.184 309.702 555.706 307.111 558.942 309.268C559.471 309.639 559.916 310.117 560.248 310.672C560.579 311.226 560.79 311.844 560.866 312.486C560.942 313.127 560.882 313.777 560.689 314.394C560.497 315.011 560.176 315.58 559.748 316.064C558 318.184 554.677 318.779 552.085 318.68Z" fill="#FFA901"/>
<g opacity="0.5">
<path d="M489.329 289.887C489.254 289.887 490.197 285.262 490.284 284.927C491.35 281.629 495.368 275.875 499.249 275.875C499.895 275.895 500.529 276.051 501.111 276.332C501.693 276.613 502.209 277.013 502.627 277.507C503.044 278 503.353 278.575 503.534 279.196C503.714 279.816 503.763 280.468 503.676 281.108C503.39 283.836 500.935 286.167 498.716 287.506C496.112 289.131 489.329 289.887 489.329 289.887Z" fill="white"/>
<path d="M481.802 258.738C485.46 260.053 487.283 266.823 487.159 270.295C487.159 270.593 486.464 275.255 486.402 275.255H486.328C486.613 276.322 486.923 277.462 487.233 278.727C487.779 281.058 488.374 283.687 488.833 286.614C489.365 289.748 489.713 292.912 489.874 296.087C490.072 299.645 489.952 303.214 489.515 306.751C489.51 306.792 489.51 306.834 489.515 306.875C489.998 305.846 491.437 303.006 491.561 302.796C493.47 299.894 498.852 295.356 502.609 296.434C503.226 296.623 503.796 296.939 504.283 297.362C504.769 297.786 505.161 298.307 505.433 298.892C505.704 299.477 505.849 300.113 505.858 300.757C505.868 301.402 505.741 302.042 505.486 302.634C504.494 305.201 501.518 306.788 499.026 307.508C496.211 308.301 489.936 307.359 489.44 307.284C488.909 310.87 488.138 314.416 487.134 317.899C486.555 319.932 485.927 321.962 485.249 323.987C485.683 323.107 486.092 322.326 486.154 322.226C488.064 319.325 493.458 314.786 497.203 315.865C497.82 316.053 498.39 316.369 498.876 316.793C499.363 317.216 499.755 317.738 500.026 318.323C500.298 318.908 500.443 319.543 500.452 320.188C500.461 320.833 500.334 321.473 500.08 322.065C499.088 324.62 496.112 326.219 493.619 326.926C491.127 327.633 485.72 326.926 484.307 326.752L483.526 329.071C482.286 332.791 480.934 336.511 479.806 340.157C479.396 341.397 479.037 342.736 478.677 344.026C479.074 343.244 479.409 342.587 479.471 342.5C481.38 339.586 486.762 335.06 490.507 336.139C491.124 336.328 491.694 336.644 492.181 337.067C492.668 337.49 493.06 338.011 493.332 338.596C493.605 339.18 493.751 339.816 493.762 340.461C493.773 341.106 493.648 341.746 493.396 342.339C492.404 344.894 489.416 346.493 486.923 347.2C484.431 347.907 479.558 347.287 477.871 347.051C477.536 348.378 477.214 349.717 476.954 351.019C476.792 351.912 476.582 352.755 476.47 353.673L476.098 356.326C475.924 358.025 475.726 359.774 475.602 361.435C475.503 362.601 475.428 363.704 475.354 364.808C475.751 363.568 476.594 361.001 476.656 360.803C478.033 358.077 480.081 355.747 482.608 354.032C482.748 353.719 482.919 353.42 483.116 353.14C483.467 352.598 483.929 352.136 484.471 351.785C485.012 351.434 485.622 351.201 486.26 351.101C486.898 351.002 487.549 351.038 488.172 351.208C488.795 351.377 489.375 351.676 489.874 352.086C492.826 354.628 492.082 361.596 490.73 364.796C490.656 364.982 489.552 366.941 488.845 368.156C489.378 367.499 489.874 366.916 490.432 366.197C491.511 364.87 492.627 363.58 493.818 362.192L495.64 360.22C496.236 359.55 496.955 358.918 497.612 358.248C499.162 356.748 500.811 355.297 502.51 353.884C501.357 352.929 497.29 349.506 496.124 347.175C494.958 344.844 494.128 341.583 495.343 339.115C495.61 338.526 495.998 338.001 496.481 337.572C496.965 337.143 497.534 336.821 498.151 336.627C498.767 336.433 499.418 336.371 500.06 336.445C500.702 336.519 501.321 336.727 501.878 337.057C505.164 339.115 505.498 346.121 504.643 349.457C504.643 349.668 503.7 352.024 503.192 353.301C504.221 352.445 505.238 351.602 506.304 350.821C509.38 348.452 512.566 346.146 515.728 343.827L518.618 341.682C518.208 341.347 513.298 337.379 511.984 334.763C510.83 332.444 509.987 329.17 511.202 326.715C511.468 326.125 511.855 325.598 512.339 325.168C512.822 324.738 513.39 324.415 514.007 324.219C514.624 324.024 515.275 323.961 515.917 324.034C516.56 324.107 517.18 324.315 517.737 324.644C521.036 326.715 521.358 333.709 520.502 337.044C520.44 337.292 519.163 340.665 518.804 341.508C520.912 339.934 523.007 338.346 525.004 336.697C527.717 334.475 530.285 332.081 532.692 329.53C532.506 329.381 527.36 325.252 526.02 322.586C524.855 320.267 524.024 316.994 525.239 314.526C525.505 313.938 525.892 313.412 526.374 312.984C526.856 312.555 527.424 312.232 528.039 312.037C528.654 311.842 529.303 311.778 529.945 311.85C530.586 311.922 531.205 312.128 531.762 312.455C535.06 314.526 535.395 321.532 534.539 324.855C534.477 325.078 533.51 327.658 533.026 328.86C533.083 328.909 533.146 328.95 533.212 328.984C535.564 326.351 537.677 323.512 539.524 320.503C540.566 318.866 541.458 317.229 542.302 315.63C541.26 314.96 536.56 311.91 535.085 309.578C533.609 307.247 532.493 304.234 533.423 301.655C533.624 301.041 533.951 300.476 534.385 299.998C534.818 299.519 535.347 299.137 535.938 298.876C536.528 298.615 537.167 298.481 537.813 298.484C538.459 298.486 539.096 298.624 539.685 298.89C543.194 300.576 544.286 307.57 543.802 310.942C543.802 311.128 543.306 313.001 542.946 314.352C543.306 313.633 543.703 312.877 544.038 312.17C545.278 309.529 546.332 307.024 547.2 304.804C547.696 303.564 548.105 302.324 548.44 301.283C547.758 300.105 545.104 295.281 544.844 292.603C544.583 289.924 545.005 286.663 547.026 284.803C547.486 284.35 548.037 283.999 548.641 283.773C549.246 283.547 549.892 283.451 550.536 283.49C551.181 283.53 551.81 283.705 552.382 284.004C552.954 284.303 553.457 284.719 553.858 285.225C556.19 288.337 553.97 294.996 551.961 297.823C551.788 298.071 548.626 301.543 548.588 301.543V301.469C548.241 302.523 547.869 303.639 547.423 304.866C546.604 307.111 545.65 309.64 544.422 312.306C543.124 315.214 541.663 318.046 540.045 320.788C538.239 323.859 536.164 326.764 533.845 329.468L533.758 329.555C534.725 328.96 537.478 327.385 537.714 327.286C540.913 325.909 547.882 325.14 550.436 328.067C550.847 328.565 551.149 329.144 551.321 329.766C551.494 330.388 551.534 331.04 551.438 331.679C551.342 332.317 551.112 332.929 550.765 333.473C550.417 334.017 549.958 334.482 549.419 334.837C547.175 336.424 543.814 336.077 541.334 335.333C538.544 334.453 533.894 330.2 533.473 329.865C531.047 332.56 528.446 335.091 525.686 337.441C524.086 338.818 522.424 340.157 520.726 341.484C521.581 341 522.35 340.566 522.462 340.516C525.648 339.14 532.617 338.371 535.172 341.298C535.585 341.795 535.888 342.374 536.062 342.996C536.235 343.619 536.275 344.271 536.179 344.911C536.083 345.55 535.853 346.161 535.505 346.706C535.156 347.25 534.696 347.714 534.155 348.068C531.923 349.655 528.55 349.308 526.082 348.564C523.615 347.82 519.486 344.224 518.419 343.269C517.762 343.778 517.179 344.286 516.472 344.782C513.36 347.175 510.272 349.544 507.234 351.962C506.18 352.817 505.176 353.685 504.159 354.566L505.672 353.722C508.859 352.358 515.828 351.577 518.382 354.516C518.795 355.013 519.098 355.592 519.272 356.215C519.446 356.837 519.486 357.49 519.39 358.129C519.294 358.768 519.064 359.38 518.715 359.924C518.366 360.468 517.906 360.932 517.365 361.286C515.121 362.874 511.76 362.526 509.293 361.77C506.825 361.014 503.093 357.777 501.853 356.661C500.848 357.579 499.832 358.509 498.902 359.451C498.269 360.108 497.662 360.691 497.042 361.398L495.256 363.419C494.177 364.734 493.049 366.085 492.02 367.4C491.3 368.317 490.631 369.198 489.961 370.078C490.99 369.222 493.074 367.598 493.26 367.462C496.198 365.614 502.981 363.804 505.945 366.308C506.425 366.74 506.809 367.268 507.072 367.857C507.335 368.447 507.471 369.085 507.471 369.731C507.471 370.376 507.335 371.015 507.072 371.604C506.809 372.194 506.425 372.722 505.945 373.153C503.961 375.063 500.588 375.261 498.034 374.864C495.206 374.43 490.098 371.144 489.465 370.686C488.349 372.149 487.283 373.587 486.291 374.951C482.856 379.7 480.178 383.792 478.342 386.669C478.342 386.781 478.218 386.868 478.156 386.967L475.776 385.814L476.148 385.243C478.07 382.379 480.872 378.312 484.443 373.587C485.572 372.087 486.799 370.524 488.076 368.912C486.747 367.466 485.505 365.943 484.356 364.349C481.616 365.416 475.937 365.453 475.193 365.453C475.081 367.3 474.982 369.086 474.908 370.772C474.66 376.638 474.684 381.523 474.746 384.933V385.33L472.13 384.09C472.13 380.692 472.266 376.104 472.614 370.673C472.725 368.813 472.886 366.817 473.072 364.771C472.341 364.597 466.426 363.072 464.194 361.286C462.173 359.674 460.04 357.046 460.114 354.305C460.107 353.659 460.237 353.018 460.495 352.426C460.753 351.833 461.133 351.301 461.611 350.866C462.089 350.43 462.653 350.101 463.267 349.898C463.881 349.696 464.531 349.626 465.174 349.692C469.03 350.188 472.266 356.401 472.899 359.823C472.899 360.022 473.097 362.303 473.172 363.655C473.258 362.824 473.32 362.018 473.42 361.175C473.581 359.476 473.804 357.79 474.04 355.967C474.176 355.099 474.325 354.206 474.461 353.313C474.598 352.42 474.833 351.503 475.019 350.598C475.49 348.477 476.061 346.357 476.693 344.236C475.205 344.088 469.935 343.468 467.666 342.166C465.397 340.864 462.917 338.607 462.582 335.879C462.478 335.241 462.51 334.589 462.676 333.965C462.841 333.341 463.137 332.758 463.543 332.256C463.949 331.754 464.457 331.343 465.033 331.051C465.609 330.759 466.24 330.591 466.885 330.559C470.766 330.46 474.908 336.114 476.048 339.4C476.123 339.599 476.681 342.042 476.954 343.393C477.35 342.153 477.722 340.851 478.194 339.574C479.434 335.854 480.835 332.221 482.199 328.538C482.62 327.41 483.017 326.281 483.439 325.153C482.906 325.153 476.619 324.508 474.089 323.045C471.845 321.805 469.34 319.486 468.993 316.758C468.891 316.121 468.924 315.469 469.091 314.846C469.257 314.223 469.553 313.641 469.959 313.139C470.365 312.638 470.871 312.227 471.446 311.934C472.021 311.641 472.651 311.472 473.296 311.438C477.189 311.339 481.331 317.006 482.472 320.28C482.558 320.528 483.352 324 483.513 324.954C484.406 322.474 485.286 319.994 485.993 317.514C487.04 314.166 487.869 310.753 488.473 307.297C488.225 307.297 481.666 306.677 479.074 305.189C476.817 303.887 474.312 301.618 473.978 298.89C473.874 298.252 473.906 297.6 474.071 296.976C474.237 296.352 474.533 295.769 474.939 295.267C475.345 294.765 475.853 294.354 476.428 294.062C477.004 293.769 477.635 293.602 478.28 293.57C482.162 293.471 486.303 299.138 487.444 302.411C487.518 302.622 488.138 305.313 488.399 306.59H488.61C489.122 303.097 489.321 299.566 489.205 296.038C489.205 294.103 489.019 292.243 488.833 290.445C487.593 290.445 481.963 290.445 479.483 289.379C477.003 288.312 474.362 286.353 473.717 283.687C473.545 283.063 473.507 282.409 473.605 281.769C473.703 281.128 473.936 280.516 474.287 279.972C474.638 279.427 475.1 278.963 475.643 278.61C476.186 278.257 476.797 278.022 477.437 277.921C481.294 277.4 486.03 282.571 487.531 285.696C487.605 285.87 488.25 287.692 488.684 289.032C488.597 288.213 488.51 287.382 488.399 286.552C488.014 283.638 487.469 280.996 486.973 278.653C486.675 277.326 486.39 276.173 486.105 275.02C484.865 274.4 480.004 271.858 478.342 269.787C476.681 267.716 475.193 264.752 475.862 262.086C476.004 261.46 476.276 260.87 476.66 260.355C477.043 259.84 477.531 259.411 478.09 259.096C478.65 258.78 479.269 258.586 479.908 258.524C480.547 258.463 481.193 258.536 481.802 258.738Z" fill="white"/>
<path d="M552.085 318.68C549.047 318.556 542.971 315.431 542.971 315.431C542.971 315.431 546.232 312.058 546.468 311.86C549.184 309.702 555.706 307.111 558.942 309.268C559.471 309.639 559.916 310.117 560.248 310.672C560.579 311.226 560.79 311.844 560.866 312.486C560.942 313.127 560.882 313.777 560.689 314.394C560.497 315.011 560.176 315.58 559.748 316.064C558 318.184 554.677 318.779 552.085 318.68Z" fill="white"/>
</g>
<path d="M516.609 394.754C516.609 394.754 498.17 350.312 487.853 352.247C477.536 354.181 505.548 423.1 505.548 423.1C505.548 423.1 473.11 361.906 450.988 361.906C428.866 361.906 459.098 429.536 487.122 452.079C487.122 452.079 442.878 404.414 417.074 414.73C391.27 425.047 468.72 473.345 468.72 473.345C468.72 473.345 423.745 459.172 428.904 470.121C434.062 481.07 448.074 483.005 448.074 483.005L397.234 485.584H574.12L534.304 481.715C534.304 481.715 575.596 461.106 564.535 452.724C553.474 444.342 529.145 462.384 529.145 462.384C529.145 462.384 571.169 416.008 563.059 398.623C554.95 381.238 518.816 430.181 518.816 430.181C518.816 430.181 548.316 367.71 542.376 356.748C536.436 345.786 516.609 394.754 516.609 394.754Z" fill="#FFA901"/>
<path opacity="0.4" d="M516.609 394.754C516.609 394.754 498.17 350.312 487.853 352.247C477.536 354.181 505.548 423.1 505.548 423.1C505.548 423.1 473.11 361.906 450.988 361.906C428.866 361.906 459.098 429.536 487.122 452.079C487.122 452.079 442.878 404.414 417.074 414.73C391.27 425.047 468.72 473.345 468.72 473.345C468.72 473.345 423.745 459.172 428.904 470.121C434.062 481.07 448.074 483.005 448.074 483.005L397.234 485.584H574.12L534.304 481.715C534.304 481.715 575.596 461.106 564.535 452.724C553.474 444.342 529.145 462.384 529.145 462.384C529.145 462.384 571.169 416.008 563.059 398.623C554.95 381.238 518.816 430.181 518.816 430.181C518.816 430.181 548.316 367.71 542.376 356.748C536.436 345.786 516.609 394.754 516.609 394.754Z" fill="white"/>
<path d="M522.511 397.098C506.292 445.024 506.292 478.938 506.292 478.938C506.292 478.938 525.462 479.682 545.364 464.938" stroke="#263238" stroke-linecap="round" stroke-linejoin="round"/>
<path d="M514.402 422.902C511.055 408.575 506.615 394.526 501.121 380.878" stroke="#263238" stroke-linecap="round" stroke-linejoin="round"/>
<path d="M466.476 394.89L507.755 456.084C507.755 456.084 535.779 432.524 545.364 419.219" stroke="#263238" stroke-linecap="round" stroke-linejoin="round"/>
<path d="M507.024 470.828C507.024 470.828 463.524 450.182 445.83 438.39" stroke="#263238" stroke-linecap="round" stroke-linejoin="round"/>
<path d="M231.508 172.41L221.377 156.24H132.147V172.41V178.225V447.231H499.435V172.41H231.508Z" fill="#263238"/>
<path d="M497.017 179.825H134.875V441.366H497.017V179.825Z" fill="white"/>
<mask id="mask0_68_218" style="mask-type:luminance" maskUnits="userSpaceOnUse" x="134" y="179" width="364" height="263">
<path d="M497.017 179.825H134.875V441.366H497.017V179.825Z" fill="white"/>
</mask>
<g mask="url(#mask0_68_218)">
<path opacity="0.17" d="M498.79 177.58H490.383V443.35H498.79V177.58Z" fill="black"/>
<path opacity="0.17" d="M498.79 338.272H490.383V441.192H498.79V338.272Z" fill="black"/>
<path d="M497.488 176.291H133.436V190.514H497.488V176.291Z" fill="#FFA901" stroke="#263238" stroke-miterlimit="10"/>
</g>
<path d="M497.017 179.825H134.875V441.366H497.017V179.825Z" stroke="#263238" stroke-linecap="round" stroke-linejoin="round"/>
<g opacity="0.17">
<path d="M323.553 204.228H298.22C297.927 204.228 297.637 204.17 297.366 204.058C297.095 203.946 296.849 203.782 296.642 203.574C296.434 203.367 296.27 203.121 296.158 202.85C296.046 202.579 295.988 202.289 295.988 201.996C295.986 201.702 296.043 201.41 296.154 201.138C296.266 200.866 296.43 200.618 296.637 200.41C296.845 200.201 297.091 200.036 297.363 199.923C297.635 199.81 297.926 199.752 298.22 199.752H323.553C323.847 199.752 324.139 199.81 324.41 199.923C324.682 200.036 324.928 200.201 325.136 200.41C325.343 200.618 325.507 200.866 325.619 201.138C325.73 201.41 325.787 201.702 325.785 201.996C325.785 202.289 325.727 202.579 325.615 202.85C325.503 203.121 325.339 203.367 325.131 203.574C324.924 203.782 324.678 203.946 324.407 204.058C324.137 204.17 323.846 204.228 323.553 204.228Z" fill="black"/>
<path d="M374.22 204.228H348.886C348.295 204.225 347.73 203.989 347.312 203.571C346.894 203.153 346.658 202.587 346.654 201.996C346.654 201.403 346.889 200.834 347.307 200.413C347.726 199.993 348.293 199.755 348.886 199.752H374.22C374.815 199.752 375.386 199.988 375.807 200.409C376.228 200.83 376.464 201.401 376.464 201.996C376.461 202.589 376.223 203.157 375.802 203.575C375.382 203.993 374.813 204.228 374.22 204.228Z" fill="black"/>
<path d="M424.898 204.228H399.565C398.972 204.228 398.403 203.993 397.983 203.575C397.562 203.157 397.324 202.589 397.321 201.996C397.321 201.401 397.557 200.83 397.978 200.409C398.399 199.988 398.97 199.752 399.565 199.752H424.898C425.491 199.755 426.059 199.993 426.477 200.413C426.896 200.834 427.13 201.403 427.13 201.996C427.127 202.587 426.891 203.153 426.473 203.571C426.055 203.989 425.489 204.225 424.898 204.228Z" fill="black"/>
<path d="M475.565 204.228H450.232C449.938 204.228 449.648 204.17 449.377 204.058C449.107 203.946 448.861 203.782 448.653 203.574C448.446 203.367 448.282 203.121 448.169 202.85C448.057 202.579 448 202.289 448 201.996C447.998 201.702 448.054 201.41 448.166 201.138C448.277 200.866 448.442 200.618 448.649 200.41C448.856 200.201 449.103 200.036 449.375 199.923C449.646 199.81 449.937 199.752 450.232 199.752H475.565C476.158 199.755 476.726 199.993 477.144 200.413C477.562 200.834 477.797 201.403 477.797 201.996C477.794 202.587 477.557 203.153 477.139 203.571C476.722 203.989 476.156 204.225 475.565 204.228Z" fill="black"/>
</g>
<path d="M169.099 310.98H207.378" stroke="#263238" stroke-width="3" stroke-linecap="round" stroke-linejoin="round"/>
<path d="M206.696 316.944H210.874" stroke="#263238" stroke-linecap="round" stroke-linejoin="round"/>
<path d="M182.726 316.944H204.166" stroke="#263238" stroke-linecap="round" stroke-linejoin="round"/>
<path d="M166.172 316.944H180.457" stroke="#263238" stroke-linecap="round" stroke-linejoin="round"/>
<path d="M193.316 322.908H210.874" stroke="#263238" stroke-linecap="round" stroke-linejoin="round"/>
<path d="M183.731 322.908H190.551" stroke="#263238" stroke-linecap="round" stroke-linejoin="round"/>
<path d="M166.172 322.908H180.705" stroke="#263238" stroke-linecap="round" stroke-linejoin="round"/>
<path d="M175.658 328.86H210.874" stroke="#263238" stroke-linecap="round" stroke-linejoin="round"/>
<path d="M166.172 328.86H172.385" stroke="#263238" stroke-linecap="round" stroke-linejoin="round"/>
<path d="M202.157 334.825H210.874" stroke="#263238" stroke-linecap="round" stroke-linejoin="round"/>
<path d="M185.504 334.825H199.119" stroke="#263238" stroke-linecap="round" stroke-linejoin="round"/>
<path d="M166.172 334.825H182.726" stroke="#263238" stroke-linecap="round" stroke-linejoin="round"/>
<path d="M180.705 340.789H210.874" stroke="#263238" stroke-linecap="round" stroke-linejoin="round"/>
<path d="M166.172 340.789H177.928" stroke="#263238" stroke-linecap="round" stroke-linejoin="round"/>
<path d="M256.395 310.98H294.674" stroke="#263238" stroke-width="3" stroke-linecap="round" stroke-linejoin="round"/>
<path d="M293.992 316.944H298.17" stroke="#263238" stroke-linecap="round" stroke-linejoin="round"/>
<path d="M270.022 316.944H291.462" stroke="#263238" stroke-linecap="round" stroke-linejoin="round"/>
<path d="M253.468 316.944H267.753" stroke="#263238" stroke-linecap="round" stroke-linejoin="round"/>
<path d="M280.612 322.908H298.17" stroke="#263238" stroke-linecap="round" stroke-linejoin="round"/>
<path d="M271.027 322.908H277.847" stroke="#263238" stroke-linecap="round" stroke-linejoin="round"/>
<path d="M253.468 322.908H268.001" stroke="#263238" stroke-linecap="round" stroke-linejoin="round"/>
<path d="M262.954 328.86H298.17" stroke="#263238" stroke-linecap="round" stroke-linejoin="round"/>
<path d="M253.468 328.86H259.681" stroke="#263238" stroke-linecap="round" stroke-linejoin="round"/>
<path d="M289.453 334.825H298.17" stroke="#263238" stroke-linecap="round" stroke-linejoin="round"/>
<path d="M272.8 334.825H286.415" stroke="#263238" stroke-linecap="round" stroke-linejoin="round"/>
<path d="M253.468 334.825H270.022" stroke="#263238" stroke-linecap="round" stroke-linejoin="round"/>
<path d="M268.001 340.789H298.17" stroke="#263238" stroke-linecap="round" stroke-linejoin="round"/>
<path d="M253.468 340.789H265.224" stroke="#263238" stroke-linecap="round" stroke-linejoin="round"/>
<path d="M343.691 310.98H381.97" stroke="#263238" stroke-width="3" stroke-linecap="round" stroke-linejoin="round"/>
<path d="M381.288 316.944H385.466" stroke="#263238" stroke-linecap="round" stroke-linejoin="round"/>
<path d="M357.318 316.944H378.758" stroke="#263238" stroke-linecap="round" stroke-linejoin="round"/>
<path d="M340.764 316.944H355.049" stroke="#263238" stroke-linecap="round" stroke-linejoin="round"/>
<path d="M367.908 322.908H385.466" stroke="#263238" stroke-linecap="round" stroke-linejoin="round"/>
<path d="M358.323 322.908H365.143" stroke="#263238" stroke-linecap="round" stroke-linejoin="round"/>
<path d="M340.764 322.908H355.297" stroke="#263238" stroke-linecap="round" stroke-linejoin="round"/>
<path d="M350.25 328.86H385.466" stroke="#263238" stroke-linecap="round" stroke-linejoin="round"/>
<path d="M340.764 328.86H346.977" stroke="#263238" stroke-linecap="round" stroke-linejoin="round"/>
<path d="M376.749 334.825H385.466" stroke="#263238" stroke-linecap="round" stroke-linejoin="round"/>
<path d="M360.096 334.825H373.711" stroke="#263238" stroke-linecap="round" stroke-linejoin="round"/>
<path d="M340.764 334.825H357.318" stroke="#263238" stroke-linecap="round" stroke-linejoin="round"/>
<path d="M355.297 340.789H385.466" stroke="#263238" stroke-linecap="round" stroke-linejoin="round"/>
<path d="M340.764 340.789H352.52" stroke="#263238" stroke-linecap="round" stroke-linejoin="round"/>
<path d="M430.987 310.98H469.266" stroke="#263238" stroke-width="3" stroke-linecap="round" stroke-linejoin="round"/>
<path d="M468.584 316.944H472.762" stroke="#263238" stroke-linecap="round" stroke-linejoin="round"/>
<path d="M444.614 316.944H466.054" stroke="#263238" stroke-linecap="round" stroke-linejoin="round"/>
<path d="M428.06 316.944H442.345" stroke="#263238" stroke-linecap="round" stroke-linejoin="round"/>
<path d="M455.204 322.908H472.762" stroke="#263238" stroke-linecap="round" stroke-linejoin="round"/>
<path d="M445.619 322.908H452.439" stroke="#263238" stroke-linecap="round" stroke-linejoin="round"/>
<path d="M428.06 322.908H442.593" stroke="#263238" stroke-linecap="round" stroke-linejoin="round"/>
<path d="M437.546 328.86H472.762" stroke="#263238" stroke-linecap="round" stroke-linejoin="round"/>
<path d="M428.06 328.86H434.273" stroke="#263238" stroke-linecap="round" stroke-linejoin="round"/>
<path d="M464.045 334.825H472.762" stroke="#263238" stroke-linecap="round" stroke-linejoin="round"/>
<path d="M447.392 334.825H461.007" stroke="#263238" stroke-linecap="round" stroke-linejoin="round"/>
<path d="M428.06 334.825H444.614" stroke="#263238" stroke-linecap="round" stroke-linejoin="round"/>
<path d="M442.593 340.789H472.762" stroke="#263238" stroke-linecap="round" stroke-linejoin="round"/>
<path d="M428.06 340.789H439.816" stroke="#263238" stroke-linecap="round" stroke-linejoin="round"/>
<path d="M484.555 291.772H147.275V222.196H484.555V291.772Z" fill="#FFA901"/>
<path opacity="0.7" d="M484.555 291.772H147.275V222.196H484.555V291.772Z" fill="white"/>
<path d="M399.206 291.772H232.686V222.196H399.206V291.772Z" fill="#FFA901"/>
<path opacity="0.92" d="M399.206 291.772H232.686V222.196H399.206V291.772Z" fill="white"/>
<path d="M365.18 242.358H376.526" stroke="#263238" stroke-linecap="round" stroke-linejoin="round"/>
<path d="M300.229 242.358H358.348" stroke="#263238" stroke-linecap="round" stroke-linejoin="round"/>
<path d="M255.366 242.358H294.066" stroke="#263238" stroke-linecap="round" stroke-linejoin="round"/>
<path d="M328.947 248.322H376.526" stroke="#263238" stroke-linecap="round" stroke-linejoin="round"/>
<path d="M302.957 248.322H321.42" stroke="#263238" stroke-linecap="round" stroke-linejoin="round"/>
<path d="M255.366 248.322H294.76" stroke="#263238" stroke-linecap="round" stroke-linejoin="round"/>
<path d="M281.083 254.287H376.526" stroke="#263238" stroke-linecap="round" stroke-linejoin="round"/>
<path d="M255.366 254.287H272.192" stroke="#263238" stroke-linecap="round" stroke-linejoin="round"/>
<path d="M352.879 260.251H376.526" stroke="#263238" stroke-linecap="round" stroke-linejoin="round"/>
<path d="M307.743 260.251H344.67" stroke="#263238" stroke-linecap="round" stroke-linejoin="round"/>
<path d="M255.366 260.251H300.229" stroke="#263238" stroke-linecap="round" stroke-linejoin="round"/>
<path d="M294.76 266.203H376.526" stroke="#263238" stroke-linecap="round" stroke-linejoin="round"/>
<path d="M255.366 266.203H287.234" stroke="#263238" stroke-linecap="round" stroke-linejoin="round"/>
<path d="M484.555 440.498H147.275V370.921H484.555V440.498Z" fill="#FFA901"/>
<path opacity="0.7" d="M484.555 440.498H147.275V370.921H484.555V440.498Z" fill="white"/>
<mask id="mask1_68_218" style="mask-type:luminance" maskUnits="userSpaceOnUse" x="412" y="342" width="76" height="99">
<path d="M487.159 342.674H412.275V440.932H487.159V342.674Z" fill="white"/>
</mask>
<g mask="url(#mask1_68_218)">
<path d="M444.639 397.395C444.639 397.395 424.886 405.331 421.786 406.311C418.686 407.29 418.5 408.63 418.5 412.883C418.5 417.136 419.083 436.319 419.083 437.869C419.083 439.419 418.884 442.32 418.884 442.32H483.6C483.6 442.32 479.334 424.96 476.817 416.764C474.3 408.568 475.466 407.848 471.014 405.145C466.562 402.442 454.894 398.561 452.414 397.978C449.842 397.574 447.242 397.38 444.639 397.395Z" fill="#263238" stroke="#263238" stroke-linecap="round" stroke-linejoin="round"/>
<path d="M445.606 395.262C445.606 395.262 440.956 394.878 439.022 398.759C437.088 402.64 432.438 411.68 432.438 411.68L438.055 415.164L431.52 418.5C432.612 423.284 433.969 428.003 435.587 432.636C436.713 435.676 438.004 438.653 439.456 441.552C439.456 441.552 448.88 430.9 452.6 427.602C455.053 425.255 457.083 422.503 458.602 419.467L453.766 415.016L462.098 414.048C462.098 414.048 459.966 403.211 457.25 398.759C454.534 394.308 445.606 395.262 445.606 395.262Z" fill="#263238" stroke="#263238" stroke-linecap="round" stroke-linejoin="round"/>
<path d="M436.096 432.76C436.443 433.727 436.815 434.645 437.174 435.451" stroke="white" stroke-width="0.5" stroke-linecap="round" stroke-linejoin="round"/>
<path d="M436.802 403.583L432.438 411.68L438.055 415.164L432.041 418.574C432.041 418.574 433.442 424.688 435.203 430.168" stroke="white" stroke-width="0.5" stroke-linecap="round" stroke-linejoin="round"/>
<path d="M458.8 399.912L462.061 414.048L453.728 415.016L458.564 419.467C458.564 419.467 449.264 430.367 445.408 434.769" stroke="white" stroke-width="0.5" stroke-linecap="round" stroke-linejoin="round"/>
<path d="M470.977 421.6L467.492 443.102" stroke="white" stroke-width="0.5" stroke-linecap="round" stroke-linejoin="round"/>
<path d="M423.15 417.731C423.15 417.731 422.766 430.702 422.952 434.769C423.105 437.347 423.627 439.89 424.502 442.32" stroke="white" stroke-width="0.5" stroke-linecap="round" stroke-linejoin="round"/>
<path d="M458.974 426.833L462.26 422.381L464.975 426.833H458.974Z" fill="white" stroke="#263238" stroke-miterlimit="10"/>
<path d="M462.842 384.226C462.842 384.226 466.128 383.842 466.91 388.69C467.691 393.539 465.36 399.726 457.61 399.726C449.86 399.726 450.455 393.911 450.641 389.658C450.827 385.404 462.842 384.226 462.842 384.226Z" fill="#263238" stroke="#263238" stroke-miterlimit="10"/>
<path d="M443.672 392.175C443.672 392.175 443.474 397.78 443.089 404.178C442.705 410.576 439.605 419.281 439.605 426.634C439.578 430.709 439.773 434.782 440.188 438.836C440.188 438.836 446.574 426.436 449.475 419.281C452.377 412.126 455.675 391.394 455.675 391.394L443.672 392.175Z" fill="white" stroke="#263238" stroke-miterlimit="10"/>
<path d="M462.644 379.44C464.086 376.616 464.882 373.508 464.975 370.338C464.975 365.502 464.008 358.918 458.391 356.004C452.774 353.09 441.924 355.037 439.22 360.654C437.396 364.245 436.541 368.25 436.74 372.273C436.936 374.448 437.39 376.591 438.092 378.659C438.092 378.659 438.873 374.939 444.094 373.054C449.314 371.169 454.944 369.173 457.647 370.574C460.35 371.975 462.644 379.44 462.644 379.44Z" fill="#263238" stroke="#263238" stroke-linecap="round" stroke-linejoin="round"/>
<path d="M438.253 377.456C438.253 377.456 435.922 373.972 434.955 376.489C433.988 379.006 435.352 382.689 436.889 383.458C438.427 384.226 439.22 383.842 439.22 383.842L438.253 377.456Z" fill="white" stroke="#263238" stroke-linecap="round" stroke-linejoin="round"/>
<path d="M462.644 378.039C462.644 378.039 465.36 375.323 465.36 377.84C465.223 380.176 464.355 382.41 462.88 384.226C461.714 385.776 461.131 385.008 461.131 385.008L462.644 378.039Z" fill="white" stroke="#263238" stroke-linecap="round" stroke-linejoin="round"/>
<path d="M458.044 366.891L459.966 361.472C460.041 361.26 460.03 361.027 459.933 360.823C459.837 360.62 459.663 360.463 459.451 360.387C459.239 360.312 459.005 360.323 458.802 360.42C458.598 360.516 458.442 360.69 458.366 360.902L456.754 365.428C455.058 365.027 453.298 364.976 451.581 365.279C449.865 365.582 448.228 366.232 446.772 367.189C441.738 370.487 437.67 373.389 437.67 373.389C437.67 373.389 437.869 384.425 439.989 388.492C442.11 392.559 445.805 397.395 448.905 397.395C452.005 397.395 457.424 390.625 459.556 388.492C461.689 386.359 463.041 378.039 463.041 375.323C463.041 373.376 459.842 369.136 458.044 366.891Z" fill="white" stroke="#263238" stroke-miterlimit="10"/>
<path d="M450.418 416.64C447.272 416.925 444.103 416.501 441.142 415.4C440.255 419.113 439.74 422.906 439.605 426.721C439.578 430.796 439.773 434.869 440.188 438.923C440.188 438.923 446.574 426.523 449.475 419.368C449.785 418.525 450.12 417.595 450.418 416.64Z" fill="#FFA901" stroke="#263238" stroke-miterlimit="10"/>
</g>
<mask id="mask2_68_218" style="mask-type:luminance" maskUnits="userSpaceOnUse" x="324" y="342" width="76" height="99">
<path d="M399.392 342.674H324.508V440.932H399.392V342.674Z" fill="white"/>
</mask>
<g mask="url(#mask2_68_218)">
<path d="M358.893 387.116C353.954 387.676 349.049 388.504 344.199 389.596C338.532 391.059 335.804 391.691 335.804 394.419C335.804 397.147 335.172 408.902 333.324 414.16C331.477 419.418 329.332 426.969 329.332 429.697C329.332 432.425 333.324 443.97 333.324 443.97H340.665C340.665 443.97 337.937 430.528 337.937 429.276C337.937 428.023 341.719 416.876 341.719 416.876L341.93 444.379H380.37L379.961 418.128C379.961 418.128 383.309 428.842 383.309 430.726C383.309 432.611 382.069 445.011 382.069 445.011H389.36C389.36 445.011 392.931 431.371 392.72 426.535C392.51 421.699 389 406.373 388.529 401.735C388.058 397.098 390.836 394.593 385.801 391.443C380.767 388.294 369.21 386.409 366.693 386.198C364.069 386.25 361.457 386.557 358.893 387.116Z" fill="#FFA901" stroke="#263238" stroke-miterlimit="10"/>
<path d="M341.682 416.938L342.314 406.435L339.996 398.462" stroke="#263238" stroke-linecap="round" stroke-linejoin="round"/>
<path d="M379.899 404.761V418.19" stroke="#263238" stroke-linecap="round" stroke-linejoin="round"/>
<path d="M380.097 408.543L383.458 403.496" stroke="#263238" stroke-linecap="round" stroke-linejoin="round"/>
<path d="M362.464 401.4L361.212 444.019" stroke="#263238" stroke-linecap="round" stroke-linejoin="round"/>
<path d="M361.832 382.081C359.964 382.184 358.187 382.923 356.798 384.177C354.491 386.285 353.648 394.469 353.648 394.469C353.648 394.469 361.001 392.373 362.254 391.989C363.506 391.604 374.654 394.084 374.654 394.084C374.654 394.084 373.612 386.744 370.673 383.594C367.734 380.444 361.832 382.081 361.832 382.081Z" fill="#263238" stroke="#263238" stroke-linecap="round" stroke-linejoin="round"/>
<path d="M358.893 375.36C358.893 375.36 360.58 377.84 360.58 385.28C360.58 392.72 361.41 400.396 362.464 401.4C363.518 402.405 367.92 391.48 367.92 386.52C368.004 383.241 368.795 380.018 370.239 377.072C370.239 377.072 364.982 373.5 362.254 373.079C361.509 372.963 360.747 373.134 360.124 373.557C359.5 373.981 359.06 374.625 358.893 375.36Z" fill="white" stroke="#263238" stroke-linecap="round" stroke-linejoin="round"/>
<path d="M360.914 393.464C361.249 397.544 361.82 400.756 362.464 401.4C363.109 402.045 365.13 397.953 366.519 393.564C364.657 393.827 362.766 393.793 360.914 393.464Z" fill="#263238" stroke="#263238" stroke-linecap="round" stroke-linejoin="round"/>
<path d="M371.702 355.21C371.702 355.21 372.942 355.632 375.274 353.524C377.605 351.416 376.514 347.436 375.484 348.279C374.827 348.815 374.258 349.451 373.798 350.164C373.391 348.935 372.641 347.848 371.637 347.031C370.633 346.214 369.417 345.7 368.131 345.551C363.729 345.129 358.472 351.218 358.472 351.218C358.472 351.218 348.824 358.36 349.866 364.027C350.908 369.694 356.376 374.728 358.893 375.36C361.41 375.993 366.036 371.38 365.192 367.387C364.349 363.394 363.729 357.467 365.192 356.884C367.329 356.204 369.503 355.645 371.702 355.21Z" fill="#263238" stroke="#263238" stroke-linecap="round" stroke-linejoin="round"/>
<path d="M358.472 372C358.472 372 354.913 369.52 354.07 371.38C353.226 373.24 355.124 376.625 357.43 377.667C359.736 378.708 361.832 375.36 361.832 375.36C361.832 375.36 369.185 381.238 374.232 381.449C379.279 381.66 379.49 377.667 378.646 370.115C377.803 362.564 375.286 356.674 373.401 354.578C371.516 352.482 364.163 354.367 361.844 356.252C359.526 358.137 358.124 359.823 360.381 360.245C362.638 360.666 364.783 361.485 362.688 363.816C360.592 366.147 359.538 365.279 360.208 366.966C360.877 368.652 363.568 370.326 361.051 371.169L358.472 372Z" fill="white" stroke="#263238" stroke-linecap="round" stroke-linejoin="round"/>
</g>
<mask id="mask3_68_218" style="mask-type:luminance" maskUnits="userSpaceOnUse" x="226" y="342" width="76" height="99">
<path d="M301.134 342.203H226.25V440.944H301.134V342.203Z" fill="white"/>
</mask>
<g mask="url(#mask3_68_218)">
<path d="M266.203 383.16C266.203 383.16 239.742 386.31 238.923 388.616C238.105 390.922 228.433 413.416 229.896 415.487C231.359 417.558 234.31 417.967 236.617 417.967C238.25 417.821 239.796 417.161 241.031 416.082L234.31 444.602H283.018L284.493 424.65C284.493 424.65 290.16 427.13 293.942 426.758C297.724 426.386 296.881 423.398 296.038 417.731C295.194 412.064 294.798 397.569 293.31 394.841C291.822 392.113 273.99 384.549 273.99 384.549L266.203 383.16Z" fill="#263238" stroke="#263238" stroke-linecap="round" stroke-linejoin="round"/>
<path d="M284.89 417.359V404.339L285.932 401.822" stroke="white" stroke-linecap="round" stroke-linejoin="round"/>
<path d="M242.47 406.435L244.578 397.618L244.156 395.734" stroke="white" stroke-linecap="round" stroke-linejoin="round"/>
<path d="M248 445.495C248 445.495 251.98 428.271 253.878 417.57C255.775 406.869 263.674 383.16 263.674 383.16L275.863 386.52C275.863 386.52 267.666 410.452 265.571 420.744C263.475 431.036 261.714 445.619 261.714 445.619L248 445.495Z" fill="#FFA901" stroke="#263238" stroke-miterlimit="10"/>
<path d="M265.36 380.68C265.36 380.68 261.789 380.68 260.524 383.16C259.259 385.64 257.585 395.337 257.585 395.337C257.585 395.337 265.149 391.976 265.782 391.976C266.414 391.976 269.353 392.187 270.816 393.861C272.279 395.535 275.441 399.528 275.441 399.528C275.441 399.528 280.265 391.766 279.012 386.731C278.583 385.072 277.641 383.59 276.321 382.497C275.001 381.404 273.37 380.755 271.659 380.643L265.36 380.68Z" fill="#FFA901" stroke="#263238" stroke-miterlimit="10"/>
<path d="M264.12 375.15C264.12 375.15 263.698 389.856 264.12 394.047C264.542 398.238 265.174 399.292 265.174 399.292C265.174 399.292 268.745 393.415 269.787 391.319C270.828 389.224 273.99 386.905 275.466 385.02C276.942 383.135 277.946 375.993 277.946 375.993C277.946 375.993 272.49 380.196 269.551 379.142C267.472 378.223 265.618 376.86 264.12 375.15Z" fill="white" stroke="#263238" stroke-linecap="round" stroke-linejoin="round"/>
<path d="M272.8 348.576C269.229 349.097 265.744 350.883 264.74 354.367C263.897 357.306 263.5 366.966 263.277 371.789C263.054 376.613 265.583 382.714 267.679 383.346C269.428 383.967 271.311 384.112 273.135 383.768C274.189 383.346 279.025 376.836 280.277 375.571C281.53 374.306 285.312 362.551 285.312 358.36C285.404 356.293 284.82 354.251 283.647 352.546C282.474 350.841 280.778 349.565 278.814 348.911C276.855 348.379 274.806 348.265 272.8 348.576Z" fill="white" stroke="#263238" stroke-linecap="round" stroke-linejoin="round"/>
<path d="M283.204 368.28C283.204 368.28 286.564 365.329 285.684 369.111C285.413 370.241 284.898 371.298 284.173 372.206C283.449 373.115 282.534 373.853 281.492 374.368L283.204 368.28Z" fill="white" stroke="#263238" stroke-linecap="round" stroke-linejoin="round"/>
<path d="M263.674 364.238C263.674 364.238 261.194 361.931 261.194 365.081C261.289 367.143 262.026 369.124 263.302 370.748L263.674 364.238Z" fill="white" stroke="#263238" stroke-linecap="round" stroke-linejoin="round"/>
<path d="M283.204 368.28C284.293 365.068 284.996 361.738 285.299 358.36C285.392 356.293 284.807 354.251 283.635 352.546C282.462 350.841 280.765 349.565 278.802 348.911C276.843 348.379 274.794 348.265 272.788 348.576C269.216 349.097 265.732 350.883 264.728 354.367C264.081 357.842 263.704 361.362 263.599 364.895C264.666 364.064 266.885 362.03 266.414 359.612C265.782 356.463 264.517 355 266.823 353.524C269.13 352.048 271.87 354.156 275.652 355.421C279.434 356.686 283.204 355 284.258 356.041C285.312 357.083 280.897 361.51 281.53 363.184C282.162 364.858 283.625 366.755 283.204 368.23V368.28Z" fill="#263238" stroke="#263238" stroke-linecap="round" stroke-linejoin="round"/>
<path d="M252.96 408.543C252.96 408.543 249.81 404.128 247.715 403.918C245.619 403.707 240.572 408.543 240.572 408.543H252.96Z" fill="white" stroke="#263238" stroke-linecap="round" stroke-linejoin="round"/>
<path d="M272.912 408.952H275.863L276.483 414.842L273.333 413.999L272.912 408.952Z" fill="white" stroke="#263238" stroke-linecap="round" stroke-linejoin="round"/>
<path d="M275.863 408.952L281.108 411.271L282.36 417.781L276.483 414.842L275.863 408.952Z" fill="white" stroke="#263238" stroke-linecap="round" stroke-linejoin="round"/>
<path d="M292.64 420.36L262.62 408.605C260.889 409.455 259.266 410.508 257.784 411.742C256.908 412.622 256.261 413.704 255.899 414.892C255.899 414.892 270.171 425.184 277.103 428.333C284.034 431.483 294.116 432.537 295.79 430.813C297.464 429.09 297.03 422.629 296 421.575C295.444 421.001 294.81 420.509 294.116 420.112" fill="#263238"/>
<path d="M292.64 420.36L262.62 408.605C260.889 409.455 259.266 410.508 257.784 411.742C256.908 412.622 256.261 413.704 255.899 414.892C255.899 414.892 270.171 425.184 277.103 428.333C284.034 431.483 294.116 432.537 295.79 430.813C297.464 429.09 297.03 422.629 296 421.575C295.444 421.001 294.81 420.509 294.116 420.112" stroke="#263238" stroke-linecap="round" stroke-linejoin="round"/>
<path d="M272.912 407.96L273.333 414.048C273.333 414.048 251.286 419.083 243.102 420.558C234.918 422.034 230.504 420.968 229.251 417.198C227.999 413.428 232.19 408.791 234.075 407.749C235.96 406.708 272.912 407.96 272.912 407.96Z" fill="#263238" stroke="#263238" stroke-linecap="round" stroke-linejoin="round"/>
</g>
<mask id="mask4_68_218" style="mask-type:luminance" maskUnits="userSpaceOnUse" x="150" y="342" width="68" height="99">
<path d="M217.186 342.674H150.883V440.932H217.186V342.674Z" fill="white"/>
</mask>
<g mask="url(#mask4_68_218)">
<path d="M191.816 393.564C191.816 393.564 200.223 395.659 203.583 396.713C206.944 397.767 207.985 399.02 207.985 401.537C207.985 404.054 206.1 415.177 206.1 416.863V428.209C206.1 431.359 209.25 442.903 209.25 442.903H168.33C168.33 442.903 163.717 425.27 160.568 415.623C157.418 405.976 156.996 402.603 160.146 401.128C167.633 398.384 175.272 396.074 183.024 394.208C185.936 393.788 188.874 393.573 191.816 393.564Z" fill="#FFA901" stroke="#263238" stroke-miterlimit="10"/>
<path d="M204.005 407.414C204.005 407.414 206.485 418.971 205.679 423.162C204.873 427.354 199.169 443.325 199.169 443.325" stroke="#263238" stroke-linecap="round" stroke-linejoin="round"/>
<path d="M160.121 401.115C160.121 401.115 156.401 401.748 157.393 406.584C158.385 411.42 153.611 442.68 153.611 442.68H162.849C162.849 442.68 169.148 426.089 170.19 422.108C171.232 418.128 172.087 414.966 170.19 411.606" fill="#FFA901"/>
<path d="M160.121 401.115C160.121 401.115 156.401 401.748 157.393 406.584C158.385 411.42 153.611 442.68 153.611 442.68H162.849C162.849 442.68 169.148 426.089 170.19 422.108C171.232 418.128 172.087 414.966 170.19 411.606" stroke="#263238" stroke-miterlimit="10"/>
<path d="M199.243 373.116L200.62 415.884H188.207V376.799L199.243 373.116Z" fill="#263238" stroke="#263238" stroke-linecap="round" stroke-linejoin="round"/>
<path d="M183.21 403.856C183.21 403.856 186.781 419.976 188.257 424.849C189.732 429.722 189.931 440.969 189.497 442.482C189.063 443.994 194.742 442.482 194.742 442.482C194.742 442.482 196.218 431.322 197.061 424.849C197.904 418.376 195.374 406.162 195.374 406.162L192.646 395.448L182.354 397.346L183.21 403.856Z" fill="white" stroke="#263238" stroke-linecap="round" stroke-linejoin="round"/>
<path d="M192.2 386.21C191.615 389.553 191.686 392.977 192.411 396.292C193.651 400.917 197.036 409.312 194.097 411.618C191.158 413.924 187.166 412.672 185.07 408.468C182.974 404.265 181.077 393.774 181.077 385.169C181.077 376.563 181.92 375.088 184.859 375.088C187.798 375.088 192.2 386.21 192.2 386.21Z" fill="white" stroke="#263238" stroke-linecap="round" stroke-linejoin="round"/>
<path d="M186.149 382.23C184.261 383.872 182.04 385.086 179.639 385.789C176.489 386.421 174.815 378.026 174.394 369.669C173.972 361.311 176.08 356.649 180.482 354.553C184.884 352.458 195.598 353.499 199.801 355.173C204.005 356.847 209.039 359.588 209.039 363.99C209.039 368.392 203.36 372 201.686 372.992C200.012 373.984 196.019 375.472 193.502 378.026C191.327 379.863 188.835 381.288 186.149 382.23Z" fill="#263238" stroke="#263238" stroke-linecap="round" stroke-linejoin="round"/>
<path d="M186.149 382.23C186.149 382.23 188.629 388.529 193.291 388.728C197.954 388.926 203.211 378.237 203.372 373.612C203.534 368.987 198.747 361.014 198.747 361.014C198.747 361.014 190.563 379.7 186.149 382.23Z" fill="white" stroke="#263238" stroke-linecap="round" stroke-linejoin="round"/>
<path d="M184.896 372.781L185.306 418.128H171.244L174.394 365.428" fill="#263238"/>
<path d="M184.896 372.781L185.306 418.128H171.244L174.394 365.428" stroke="#263238" stroke-linecap="round" stroke-linejoin="round"/>
</g>
</svg>
