
<svg width="480" height="480" viewBox="0 0 480 480" fill="none" xmlns="http://www.w3.org/2000/svg">
<path d="M105.6 408.96C182.496 445.603 307.104 445.603 384 408.96C460.896 372.317 460.8 312.96 384 276.317C307.2 239.673 182.534 239.683 105.677 276.317C28.8192 312.95 28.8 372.336 105.6 408.96Z" fill="#EBEBEB"/>
<path d="M353.357 136.608L356.89 133.891V126.115C356.89 119.962 361.795 112.81 367.133 109.728C372.47 106.646 376.8 109.142 376.8 115.306V116.429C377.922 114.607 379.454 113.072 381.274 111.946C385.114 109.728 388.234 111.523 388.234 115.958V116.477L395.299 112.397C397.824 110.938 399.878 112.118 399.878 115.037C399.792 116.625 399.332 118.171 398.536 119.549C397.741 120.926 396.632 122.097 395.299 122.966L353.357 147.178C350.832 148.637 348.778 147.456 348.778 144.538C348.864 142.949 349.324 141.403 350.12 140.026C350.915 138.648 352.024 137.477 353.357 136.608Z" fill="#EBEBEB"/>
<path d="M99.9264 347.942C99.4272 347.856 98.8992 347.702 98.304 347.549C96.298 347.011 94.321 346.37 92.3808 345.629C88.511 344.225 84.8614 342.275 81.5424 339.84C79.7222 338.546 78.1649 336.917 76.9536 335.04C75.7429 333.14 75.313 330.846 75.7536 328.637C75.9975 327.546 76.5483 326.548 77.341 325.761C78.1337 324.973 79.1351 324.429 80.2272 324.192C81.2544 324.029 82.32 324.192 83.3472 324.01C83.8731 323.967 84.3719 323.759 84.7708 323.413C85.1697 323.068 85.4479 322.604 85.5648 322.09C85.5689 321.501 85.4094 320.923 85.104 320.419C83.2388 317.003 81.6343 313.45 80.304 309.792C79.1904 306.528 79.1233 302.997 80.112 299.693C80.9515 296.405 82.7493 293.441 85.2768 291.178C86.4288 290.218 88.0224 289.392 89.4144 289.997C89.857 290.222 90.2457 290.54 90.5539 290.93C90.8621 291.319 91.0825 291.77 91.2 292.253C91.4149 293.217 91.5243 294.202 91.5264 295.19C91.6635 297.316 92.0699 299.416 92.736 301.44C93.0341 302.704 93.7598 303.827 94.7904 304.618C96.576 305.731 99.0336 304.858 100.934 305.76C102.835 306.662 103.488 308.736 103.574 310.694C103.661 312.653 103.267 314.63 103.488 316.579C103.527 317.194 103.722 317.789 104.054 318.307C104.583 318.874 105.195 319.356 105.869 319.738C106.754 320.47 107.464 321.392 107.946 322.436C108.428 323.479 108.669 324.617 108.653 325.766C108.595 328.063 108.157 330.333 107.357 332.486C106.475 335.497 105.833 338.572 105.437 341.683C105.124 343.59 104.316 345.38 103.094 346.877C102.732 347.349 102.237 347.703 101.673 347.893C101.109 348.082 100.501 348.1 99.9264 347.942Z" fill="#FFA901"/>
<path d="M103.114 346.349C103.057 346.348 103.002 346.332 102.953 346.304C102.904 346.275 102.863 346.234 102.835 346.185C91.632 327.293 88.0896 313.987 87.0816 306.144C85.9776 297.6 87.5328 293.597 87.6 293.433C87.6157 293.393 87.6393 293.356 87.6693 293.325C87.6993 293.294 87.7351 293.269 87.7748 293.251C87.8145 293.234 87.8572 293.225 87.9005 293.224C87.9438 293.223 87.9868 293.23 88.0272 293.246C88.0675 293.262 88.1044 293.286 88.1356 293.316C88.1669 293.346 88.1919 293.381 88.2093 293.421C88.2266 293.461 88.236 293.503 88.2369 293.547C88.2378 293.59 88.2301 293.633 88.2144 293.673C88.2144 293.741 86.6592 297.763 87.744 306.153C88.704 313.92 92.2944 327.11 103.402 345.859C103.424 345.896 103.439 345.937 103.445 345.98C103.452 346.023 103.449 346.067 103.439 346.109C103.428 346.151 103.409 346.19 103.383 346.225C103.357 346.259 103.324 346.288 103.286 346.31C103.232 346.336 103.173 346.349 103.114 346.349Z" fill="white"/>
<path d="M97.1232 335.395C83.472 333.897 79.6128 329.414 79.4496 329.222C79.3886 329.161 79.3544 329.078 79.3544 328.992C79.3544 328.906 79.3886 328.823 79.4496 328.761C79.4792 328.73 79.5149 328.705 79.5545 328.688C79.5942 328.671 79.6369 328.662 79.68 328.662C79.7231 328.662 79.7658 328.671 79.8055 328.688C79.8451 328.705 79.8808 328.73 79.9104 328.761C79.9104 328.809 83.808 333.235 97.1424 334.704C97.2206 334.717 97.2915 334.758 97.3426 334.818C97.3938 334.879 97.4218 334.956 97.4218 335.035C97.4218 335.114 97.3938 335.191 97.3426 335.252C97.2915 335.312 97.2206 335.353 97.1424 335.366L97.1232 335.395Z" fill="white"/>
<path d="M93.2736 326.89C93.2009 326.89 93.1301 326.866 93.072 326.822C93.0377 326.796 93.009 326.763 92.9876 326.726C92.9661 326.688 92.9523 326.647 92.9469 326.604C92.9416 326.561 92.9448 326.518 92.9564 326.476C92.9679 326.435 92.9877 326.396 93.0144 326.362C97.344 320.669 97.6224 311.338 97.632 311.242C97.6319 311.198 97.6407 311.156 97.6578 311.116C97.6749 311.076 97.7 311.04 97.7315 311.011C97.7629 310.981 97.8002 310.958 97.8409 310.943C97.8815 310.929 97.9248 310.922 97.968 310.925C98.0113 310.925 98.0541 310.934 98.0938 310.951C98.1336 310.968 98.1694 310.993 98.1991 311.024C98.2288 311.056 98.2517 311.093 98.2664 311.134C98.2812 311.174 98.2874 311.218 98.2848 311.261C98.2848 311.655 97.9968 320.861 93.5424 326.755C93.5111 326.797 93.4705 326.831 93.4239 326.854C93.3772 326.878 93.3258 326.89 93.2736 326.89Z" fill="white"/>
<path d="M373.056 289.594C374.381 280.666 374.4 269.77 367.843 253.853C361.286 237.936 363.322 229.594 370.349 227.318C377.376 225.043 392.947 237.13 392.371 257.453C391.805 277.075 378.547 293.28 378.547 293.28L373.056 289.594Z" fill="#FFA901"/>
<path opacity="0.1" d="M373.056 289.594C374.381 280.666 374.4 269.77 367.843 253.853C361.286 237.936 363.322 229.594 370.349 227.318C377.376 225.043 392.947 237.13 392.371 257.453C391.805 277.075 378.547 293.28 378.547 293.28L373.056 289.594Z" fill="black"/>
<path d="M376.483 292.224C376.442 292.233 376.4 292.233 376.358 292.224C376.318 292.208 376.28 292.184 376.249 292.154C376.218 292.123 376.194 292.086 376.178 292.046C376.161 292.005 376.154 291.962 376.155 291.918C376.156 291.874 376.167 291.831 376.186 291.792C376.253 291.629 383.434 274.857 382.906 259.632C382.31 242.112 372.605 232.473 372.509 232.377C372.478 232.347 372.453 232.311 372.436 232.271C372.419 232.232 372.41 232.189 372.41 232.146C372.41 232.102 372.418 232.06 372.434 232.019C372.45 231.979 372.474 231.943 372.504 231.912C372.534 231.881 372.57 231.856 372.61 231.839C372.65 231.822 372.693 231.813 372.736 231.813C372.779 231.813 372.822 231.821 372.862 231.837C372.902 231.853 372.939 231.877 372.97 231.907C373.066 232.003 382.954 241.805 383.53 259.613C384.058 274.973 376.81 291.888 376.752 292.051C376.725 292.1 376.686 292.141 376.639 292.171C376.593 292.202 376.539 292.22 376.483 292.224Z" fill="white"/>
<path d="M373.44 297.514C373.44 297.514 377.146 275.933 390.298 263.53C403.45 251.127 425.376 248.765 432.25 255.389C439.123 262.013 434.717 268.455 425.03 270.691C414.086 273.216 407.376 277.632 414.086 281.011C420.317 284.141 419.616 290.928 413.126 294.183C402.758 299.386 384.038 294.432 379.526 304.666L373.44 297.514Z" fill="#FFA901"/>
<path d="M376.224 302.083H376.118C376.036 302.053 375.97 301.992 375.932 301.913C375.894 301.834 375.889 301.744 375.917 301.661C378.949 293.222 383.621 285.466 389.664 278.842C394.401 273.719 399.946 269.409 406.08 266.083C412.174 262.72 418.808 260.446 425.683 259.363C425.771 259.355 425.858 259.382 425.926 259.437C425.995 259.493 426.038 259.573 426.048 259.661C426.053 259.704 426.05 259.747 426.038 259.789C426.027 259.831 426.007 259.87 425.98 259.903C425.953 259.937 425.92 259.966 425.882 259.987C425.845 260.008 425.803 260.021 425.76 260.026C418.954 261.119 412.391 263.393 406.368 266.746C396.768 271.958 383.741 282.298 376.512 301.93C376.48 301.977 376.437 302.016 376.387 302.043C376.337 302.069 376.281 302.083 376.224 302.083Z" fill="white"/>
<path d="M382.896 288.509C382.827 288.509 382.759 288.488 382.703 288.448C382.646 288.409 382.603 288.353 382.579 288.288C382.551 288.205 382.557 288.115 382.594 288.036C382.632 287.957 382.699 287.896 382.781 287.865C394.003 283.949 410.093 286.003 410.256 286.022C410.299 286.028 410.34 286.042 410.378 286.064C410.415 286.085 410.448 286.114 410.474 286.148C410.5 286.183 410.52 286.222 410.531 286.264C410.542 286.305 410.545 286.349 410.539 286.392C410.534 286.435 410.519 286.476 410.498 286.513C410.476 286.551 410.447 286.584 410.413 286.61C410.379 286.636 410.34 286.656 410.298 286.667C410.256 286.678 410.212 286.681 410.17 286.675C410.016 286.675 394.07 284.621 383.002 288.489C382.969 288.505 382.932 288.511 382.896 288.509Z" fill="white"/>
<path d="M113.712 67.2002C113.632 65.7175 113.203 64.2747 112.461 62.9887C111.719 61.7027 110.684 60.6098 109.44 59.7986L105.955 57.7826C104.631 57.1105 103.168 56.7603 101.683 56.7603C100.199 56.7603 98.735 57.1105 97.4112 57.7826L69.8496 73.6898C68.537 74.5146 67.4644 75.67 66.7392 77.0402C66.1148 78.1288 65.7226 79.3349 65.5872 80.5826C65.5872 80.7554 65.5872 80.9282 65.5872 81.101V112.915C65.6685 114.399 66.0986 115.842 66.8426 117.128C67.5865 118.414 68.6234 119.507 69.8688 120.317L73.344 122.333L73.7856 122.563L73.9488 122.631L74.2464 122.755L74.4768 122.842L74.7264 122.928L75.0048 123.005L75.216 123.063L75.5424 123.139H75.7056L76.0992 123.207H76.176C78.1441 123.529 80.1638 123.209 81.936 122.295L109.44 106.426C110.686 105.614 111.722 104.519 112.466 103.232C113.21 101.944 113.64 100.499 113.722 99.0146L113.712 67.2002Z" fill="#FFA901"/>
<path opacity="0.4" d="M78.8544 83.837C78.3608 84.6545 77.9919 85.541 77.76 86.4674C78.3331 84.068 79.8079 81.9813 81.8784 80.6402L109.44 64.733C111.802 63.3698 113.722 64.4738 113.722 67.2002C113.64 65.7167 113.21 64.2733 112.466 62.9872C111.722 61.7011 110.685 60.6087 109.44 59.7986L105.955 57.7826C104.631 57.1105 103.168 56.7603 101.683 56.7603C100.199 56.7603 98.735 57.1105 97.4112 57.7826L69.8496 73.6898C68.537 74.5146 67.4643 75.67 66.7392 77.0402L66.8256 76.8866L78.8544 83.837Z" fill="white"/>
<path opacity="0.1" d="M80.9952 122.736L80.7936 122.794L80.448 122.861H80.1216H79.7856C79.3886 122.832 79.0086 122.689 78.6912 122.448L78.5376 122.304L78.4512 122.228L78.336 122.084L78.24 121.959L78.144 121.805L78.0576 121.652C78.0576 121.652 78.0576 121.546 77.9904 121.488C77.9608 121.429 77.9351 121.368 77.9136 121.306L77.76 121.152V120.96C77.76 120.903 77.76 120.845 77.76 120.788C77.7547 120.695 77.7547 120.602 77.76 120.509C77.7548 120.458 77.7548 120.407 77.76 120.356C77.76 120.212 77.76 120.058 77.76 119.895V88.0515C77.7606 87.7073 77.7895 87.3638 77.8464 87.0243C77.8464 86.8995 77.8464 86.7651 77.9232 86.6403V86.4867C78.1431 85.5625 78.499 84.676 78.9792 83.8563L66.8256 76.8867L66.7392 77.0403C66.1148 78.129 65.7226 79.3351 65.5872 80.5827C65.5872 80.7555 65.5872 80.9283 65.5872 81.1011V112.916C65.6685 114.399 66.0986 115.842 66.8426 117.129C67.5865 118.415 68.6234 119.507 69.8688 120.317L73.344 122.333L73.7856 122.564L73.9488 122.631L74.2464 122.756L74.4768 122.842L74.7264 122.928L75.0048 123.005L75.216 123.063L75.5424 123.14H75.7056L76.0992 123.207H76.176C77.7965 123.453 79.4529 123.291 80.9952 122.736Z" fill="black"/>
<path d="M101.674 96.3747C103.514 92.2625 104.457 87.8049 104.438 83.2995C105.338 81.9042 106.094 80.4215 106.694 78.8739C105.919 79.7826 105.047 80.6035 104.093 81.3219C105.061 79.9685 105.738 78.4288 106.08 76.8003C105.249 77.9554 104.282 79.0062 103.2 79.9299C102.721 79.5738 102.141 79.3815 101.544 79.3815C100.947 79.3815 100.367 79.5738 99.888 79.9299C97.008 81.6195 94.8192 86.4963 95.4816 89.8947C91.7184 91.8147 88.3776 91.3347 86.1504 88.9347C84.96 92.3331 85.536 95.5587 87.552 96.1827C86.9351 96.5531 86.2115 96.7053 85.4976 96.6147C85.4976 99.4947 86.9472 101.194 89.1264 100.512C88.5488 101.088 87.8503 101.527 87.0816 101.799C87.6576 103.863 89.328 104.679 91.3152 103.555C89.7683 106.306 87.4258 108.525 84.5952 109.92C86.592 110.477 88.9728 110.103 91.536 108.624C96.0096 106.042 99.4464 101.367 101.645 96.3075" fill="white"/>
<path d="M113.712 183.044C113.626 181.568 113.194 180.132 112.452 178.854C111.71 177.575 110.679 176.488 109.44 175.68L105.955 173.664C104.631 172.992 103.168 172.642 101.683 172.642C100.199 172.642 98.735 172.992 97.4112 173.664L69.8592 189.572C68.5466 190.396 67.474 191.552 66.7488 192.922C66.1244 194.011 65.7322 195.217 65.5968 196.464C65.5968 196.637 65.5968 196.81 65.5968 196.983V228.797C65.6808 230.272 66.1093 231.706 66.8479 232.984C67.5864 234.263 68.6145 235.351 69.8496 236.16L73.3248 238.176L73.7664 238.397L73.9296 238.474L74.2272 238.599L74.4576 238.685L74.7072 238.772L74.9856 238.848L75.1968 238.906L75.5232 238.983H75.6864L76.08 239.05H76.1568C78.1301 239.358 80.1501 239.021 81.9168 238.09L109.44 222.269C110.686 221.457 111.722 220.363 112.466 219.075C113.21 217.788 113.64 216.343 113.722 214.858L113.712 183.044Z" fill="#FFA901"/>
<path opacity="0.4" d="M78.8544 199.68C78.3742 200.5 78.0183 201.387 77.7984 202.311C78.362 199.918 79.8224 197.832 81.8784 196.484L109.44 180.576C111.802 179.213 113.722 180.317 113.722 183.044C113.634 181.567 113.201 180.131 112.458 178.852C111.714 177.573 110.68 176.487 109.44 175.68L105.955 173.664C104.631 172.992 103.168 172.642 101.683 172.642C100.199 172.642 98.735 172.992 97.4112 173.664L69.8592 189.572C68.5466 190.396 67.474 191.552 66.7488 192.922L66.8352 192.768L78.8544 199.68Z" fill="white"/>
<path opacity="0.1" d="M80.9952 238.579L80.7936 238.637C80.6806 238.672 80.5651 238.697 80.448 238.714H80.1216H79.7856C79.3887 238.685 79.0086 238.541 78.6912 238.301L78.5376 238.157L78.4512 238.08L78.336 237.927L78.24 237.811L78.144 237.658L78.0576 237.504C78.0576 237.447 78.0576 237.399 77.9904 237.341C77.9591 237.279 77.9334 237.215 77.9136 237.149L77.856 236.986L77.7984 236.755C77.7984 236.755 77.7984 236.65 77.7984 236.592C77.7931 236.499 77.7931 236.407 77.7984 236.314C77.7932 236.263 77.7932 236.211 77.7984 236.16C77.7984 236.016 77.7984 235.853 77.7984 235.69V203.895C77.799 203.55 77.8279 203.207 77.8848 202.867C77.8848 202.733 77.8848 202.608 77.9616 202.483V202.33C78.1815 201.406 78.5374 200.519 79.0176 199.699L66.9888 192.749L66.9024 192.903C66.278 193.991 65.8858 195.197 65.7504 196.445C65.7504 196.618 65.7504 196.791 65.7504 196.963V228.778C65.8142 230.242 66.2178 231.671 66.9292 232.953C67.6407 234.234 68.6405 235.332 69.8496 236.16L73.3248 238.176L73.7664 238.397L73.9296 238.474L74.2272 238.599L74.4576 238.685L74.7072 238.771L74.9856 238.848L75.1968 238.906L75.5232 238.983H75.6864L76.08 239.05H76.1568C77.7836 239.299 79.447 239.138 80.9952 238.579Z" fill="black"/>
<path d="M95.6544 197.76C98.4768 196.128 98.8128 195.956 99.9264 195.38C100.513 195.028 101.167 194.805 101.846 194.727C102.281 194.683 102.715 194.81 103.056 195.082C103.44 195.373 103.719 195.781 103.853 196.244C104.1 197.023 104.223 197.836 104.218 198.653C104.266 200.103 104.275 200.573 104.275 204.308C104.275 208.042 104.275 208.512 104.218 210.068C104.201 211.019 104.078 211.966 103.853 212.89C103.679 213.613 103.411 214.31 103.056 214.964C102.738 215.603 102.33 216.195 101.846 216.72C101.282 217.342 100.636 217.885 99.9264 218.333C98.8128 219.044 98.4768 219.293 95.6544 220.877C92.832 222.461 92.5056 222.692 91.392 223.268C90.805 223.616 90.1505 223.835 89.472 223.911C89.0349 223.955 88.5976 223.828 88.2528 223.556C87.8746 223.261 87.5991 222.854 87.4656 222.394C87.2188 221.618 87.0957 220.808 87.1008 219.994C87.1008 218.535 87.0336 218.074 87.0336 214.34C87.0336 210.605 87.0336 210.125 87.1008 208.58C87.1151 207.609 87.2374 206.643 87.4656 205.7C87.6419 204.979 87.9063 204.282 88.2528 203.626C88.5793 202.989 88.9893 202.398 89.472 201.869C90.0343 201.245 90.6804 200.703 91.392 200.256C92.5056 199.546 92.8416 199.296 95.6544 197.712M95.6544 195.178C92.7744 196.829 92.4288 197.098 91.3056 197.77C90.3573 198.363 89.4948 199.083 88.7424 199.911C87.9798 200.716 87.3335 201.624 86.8224 202.608C86.2871 203.62 85.8776 204.694 85.6032 205.805C85.3045 207.019 85.1403 208.261 85.1136 209.511C85.1136 211.037 85.0464 211.527 85.0464 215.348C85.0464 219.168 85.0464 219.648 85.1136 221.108C85.1138 222.173 85.279 223.232 85.6032 224.247C85.8159 224.953 86.2417 225.577 86.8224 226.032C87.3671 226.457 88.0556 226.654 88.7424 226.58C89.6459 226.49 90.5198 226.209 91.3056 225.754C92.4288 225.168 92.784 224.976 95.6544 223.325C98.5248 221.674 98.88 221.405 100.013 220.724C101.9 219.556 103.433 217.897 104.448 215.924C104.982 214.912 105.388 213.838 105.658 212.727C105.96 211.517 106.128 210.278 106.157 209.031C106.157 207.495 106.214 207.005 106.214 203.184C106.214 199.364 106.214 198.893 106.157 197.424C106.156 196.362 105.987 195.305 105.658 194.295C105.446 193.587 105.024 192.961 104.448 192.5C103.903 192.076 103.214 191.883 102.528 191.962C101.624 192.047 100.749 192.329 99.9648 192.788C98.832 193.364 98.4768 193.556 95.6064 195.216M95.6064 202.061C92.6112 203.789 90.1824 208.426 90.1824 212.42C90.1824 216.413 92.6112 218.247 95.6064 216.519C98.6016 214.791 101.03 210.154 101.03 206.16C101.03 202.167 98.6016 200.333 95.6064 202.061ZM95.6064 213.984C93.6864 215.108 92.0928 213.917 92.0928 211.325C92.0928 208.733 93.6672 205.719 95.6064 204.605C97.5456 203.492 99.1296 204.672 99.1296 207.274C99.1296 209.876 97.5552 212.871 95.6064 213.994M102.509 197.799C102.509 196.839 101.942 196.436 101.242 196.839C100.855 197.116 100.538 197.48 100.318 197.902C100.098 198.324 99.9803 198.792 99.9744 199.268C99.9744 200.228 100.541 200.621 101.242 200.228C101.627 199.952 101.943 199.589 102.163 199.169C102.383 198.749 102.501 198.283 102.509 197.808" fill="white"/>
<path d="M161.674 108.97C161.598 107.49 161.176 106.049 160.44 104.764C159.705 103.478 158.677 102.383 157.44 101.568L153.955 99.5522C152.63 98.8801 151.165 98.5298 149.678 98.5298C148.192 98.5298 146.727 98.8801 145.402 99.5522L117.85 115.459C116.684 116.232 115.701 117.249 114.967 118.439C114.232 119.629 113.765 120.964 113.597 122.352C113.597 122.525 113.597 122.698 113.597 122.871V154.685C113.676 156.168 114.105 157.611 114.847 158.897C115.589 160.183 116.625 161.276 117.869 162.087L121.354 164.103L121.795 164.333L121.958 164.4L122.256 164.525L122.477 164.611L122.736 164.698L123.005 164.775L123.226 164.832L123.552 164.909H123.715L124.109 164.976H124.186C126.154 165.298 128.173 164.978 129.946 164.064L157.44 148.195C158.684 147.383 159.72 146.288 160.462 145.001C161.204 143.713 161.632 142.268 161.712 140.784L161.674 108.97Z" fill="#FFA901"/>
<path opacity="0.4" d="M126.826 125.607C126.347 126.428 125.988 127.314 125.76 128.237C126.326 125.842 127.79 123.756 129.85 122.41L157.44 106.503C159.802 105.139 161.712 106.243 161.712 108.97C161.633 107.487 161.204 106.044 160.462 104.758C159.72 103.472 158.684 102.379 157.44 101.568L153.955 99.5522C152.63 98.8801 151.165 98.5298 149.678 98.5298C148.192 98.5298 146.727 98.8801 145.402 99.5522L117.85 115.459C116.542 116.287 115.473 117.442 114.749 118.81L114.826 118.656L126.826 125.607Z" fill="white"/>
<path opacity="0.1" d="M128.966 164.506L128.755 164.563C128.645 164.598 128.533 164.624 128.419 164.64H128.102H127.68C127.286 164.61 126.91 164.466 126.595 164.227L126.442 164.083L126.355 164.006L126.23 163.853L126.144 163.738C126.106 163.69 126.074 163.639 126.048 163.584L125.962 163.431C125.962 163.382 125.962 163.325 125.885 163.267L125.818 163.085L125.76 162.912C125.76 162.842 125.741 162.765 125.702 162.682C125.697 162.627 125.697 162.573 125.702 162.518C125.697 162.426 125.697 162.333 125.702 162.24C125.697 162.189 125.697 162.138 125.702 162.086C125.693 161.933 125.693 161.779 125.702 161.626V129.821C125.708 129.477 125.737 129.134 125.789 128.794C125.789 128.659 125.789 128.534 125.856 128.41C125.86 128.359 125.86 128.307 125.856 128.256C126.084 127.333 126.443 126.447 126.922 125.626L114.883 118.675L114.806 118.829C114.178 119.916 113.785 121.123 113.654 122.371C113.654 122.544 113.654 122.717 113.654 122.89V154.704C113.734 156.187 114.162 157.63 114.905 158.916C115.647 160.202 116.682 161.295 117.926 162.106L121.411 164.122L121.853 164.352L122.016 164.419L122.314 164.544L122.534 164.631L122.794 164.717L123.062 164.794L123.283 164.851L123.61 164.928H123.773L124.166 164.995H124.243C125.834 165.219 127.455 165.051 128.966 164.506Z" fill="black"/>
<path d="M140.65 152.948L145.248 150.288V134.928L148.454 133.076L148.79 127.738L145.248 129.783V126.855C145.248 125.645 145.43 125.06 146.304 124.56L148.79 123.12V117.783L145.613 119.626C144.041 120.455 142.738 121.715 141.859 123.26C140.979 124.804 140.56 126.568 140.65 128.343V132.48L138.24 133.834V139.037L140.63 137.664L140.65 152.948Z" fill="white"/>
<path d="M99.4176 353.28L209.558 416.852C210.852 417.509 212.283 417.852 213.734 417.852C215.186 417.852 216.617 417.509 217.91 416.852L389.674 317.693C391.978 316.359 391.978 314.208 389.674 312.893L279.533 249.284C278.241 248.626 276.811 248.283 275.362 248.283C273.912 248.283 272.482 248.626 271.19 249.284L99.4176 348.48C97.1136 349.786 97.1136 351.936 99.4176 353.28Z" fill="#E0E0E0"/>
<path d="M102.883 337.92L209.904 399.715C211.212 400.378 212.657 400.724 214.123 400.724C215.589 400.724 217.035 400.378 218.342 399.715L388.022 301.766C390.355 300.422 390.355 298.243 388.022 296.899L280.992 235.104C279.684 234.441 278.239 234.096 276.773 234.096C275.307 234.096 273.861 234.441 272.554 235.104L102.883 333.12C100.55 334.416 100.55 336.595 102.883 337.92Z" fill="#37474F"/>
<path d="M209.904 399.735L102.883 337.92C100.8 336.72 100.579 334.848 102.221 333.504C101.178 334.331 100.321 335.37 99.7074 336.551C99.0936 337.732 98.7364 339.03 98.6592 340.359V344.324C98.7391 345.789 99.1632 347.215 99.897 348.486C100.631 349.757 101.654 350.837 102.883 351.639L209.904 413.424C211.203 414.115 212.657 414.462 214.128 414.432V400.743C212.657 400.772 211.203 400.425 209.904 399.735Z" fill="#455A64"/>
<path d="M388.022 315.475C389.25 314.675 390.272 313.597 391.004 312.327C391.736 311.058 392.159 309.633 392.237 308.17V304.205C392.16 302.876 391.803 301.578 391.189 300.397C390.576 299.215 389.719 298.177 388.675 297.351C390.317 298.695 390.106 300.567 388.022 301.767L218.342 399.735C217.046 400.423 215.596 400.77 214.128 400.743V414.451C215.596 414.479 217.046 414.132 218.342 413.443L388.022 315.475Z" fill="#263238"/>
<path d="M160.32 366.461C162.136 367.384 164.144 367.866 166.181 367.866C168.218 367.866 170.226 367.384 172.042 366.461C175.277 364.541 175.277 361.565 172.042 359.693C170.224 358.775 168.217 358.297 166.181 358.297C164.145 358.297 162.137 358.775 160.32 359.693C157.123 361.565 157.123 364.599 160.32 366.461Z" fill="#263238"/>
<path d="M226.56 386.621L124.118 327.437C122.726 326.631 122.726 325.315 124.118 324.509L257.558 247.44C258.342 247.043 259.209 246.836 260.088 246.836C260.967 246.836 261.834 247.043 262.618 247.44L365.059 306.624C366.461 307.431 366.461 308.736 365.059 309.504L231.619 386.583C230.838 386.986 229.973 387.199 229.094 387.206C228.215 387.213 227.347 387.012 226.56 386.621Z" fill="white"/>
<path d="M326.765 270.346C327.225 270.578 327.733 270.699 328.248 270.699C328.763 270.699 329.271 270.578 329.731 270.346C329.891 270.266 330.025 270.144 330.119 269.992C330.213 269.84 330.263 269.665 330.263 269.487C330.263 269.308 330.213 269.133 330.119 268.981C330.025 268.83 329.891 268.707 329.731 268.627C329.271 268.395 328.763 268.274 328.248 268.274C327.733 268.274 327.225 268.395 326.765 268.627C325.939 269.098 325.939 269.866 326.765 270.346Z" fill="#263238"/>
<path d="M331.507 283.805C332.427 284.269 333.443 284.511 334.474 284.511C335.504 284.511 336.52 284.269 337.44 283.805C339.082 282.845 339.082 281.319 337.44 280.378C336.521 279.909 335.505 279.665 334.474 279.665C333.442 279.665 332.426 279.909 331.507 280.378C329.866 281.28 329.866 282.855 331.507 283.805Z" fill="#263238"/>
<path d="M327.36 277.834C328.454 277.21 328.397 276.154 327.226 275.482L307.699 264.202C307.072 263.869 306.374 263.688 305.664 263.675C304.953 263.661 304.249 263.816 303.61 264.125C302.515 264.759 302.573 265.815 303.744 266.487L323.27 277.767C323.899 278.098 324.597 278.277 325.307 278.289C326.018 278.301 326.721 278.145 327.36 277.834Z" fill="#263238"/>
<path d="M255.83 263.357C254.429 264.164 254.429 265.469 255.83 266.237L333.878 311.309C334.664 311.707 335.532 311.914 336.413 311.914C337.293 311.914 338.161 311.707 338.947 311.309L356.227 301.354L273.11 253.354L255.83 263.357Z" fill="#EBEBEB"/>
<path d="M256.406 271.181L250.176 267.591C249.916 267.458 249.628 267.389 249.336 267.389C249.044 267.389 248.756 267.458 248.496 267.591L244.57 269.856C244.099 270.125 244.099 270.557 244.57 270.816L245.107 271.133L243.12 272.189C242.89 272.314 242.909 272.391 243.178 272.371L246.672 272.035L250.8 274.416C251.063 274.545 251.352 274.612 251.645 274.612C251.938 274.612 252.227 274.545 252.49 274.416L256.406 272.151C256.505 272.113 256.59 272.047 256.649 271.96C256.709 271.874 256.741 271.771 256.741 271.666C256.741 271.56 256.709 271.458 256.649 271.371C256.59 271.285 256.505 271.218 256.406 271.181Z" fill="#EBEBEB"/>
<path d="M258.24 280.551L257.779 279.591C257.184 278.333 256.819 276.624 258.547 275.636C259.202 275.304 259.925 275.131 260.659 275.131C261.393 275.131 262.117 275.304 262.771 275.636C263.674 276.154 263.875 276.932 263.376 277.556C264.497 277.249 265.692 277.372 266.726 277.901C266.983 277.984 267.206 278.147 267.365 278.365C267.524 278.583 267.609 278.846 267.609 279.116C267.609 279.385 267.524 279.648 267.365 279.866C267.206 280.084 266.983 280.247 266.726 280.33C265.037 281.29 262.08 281.117 259.901 280.781L258.24 280.551Z" fill="#EBEBEB"/>
<path d="M172.704 314.266L250.762 359.338C251.547 359.735 252.416 359.942 253.296 359.942C254.177 359.942 255.045 359.735 255.83 359.338L316.618 324.231C318.01 323.424 318.01 322.119 316.618 321.351L238.56 276.24C237.774 275.843 236.906 275.636 236.026 275.636C235.145 275.636 234.277 275.843 233.491 276.24L172.704 311.347C171.302 312.154 171.302 313.459 172.704 314.266Z" fill="#EBEBEB"/>
<path d="M173.299 319.171L167.04 315.571C166.777 315.442 166.488 315.375 166.195 315.375C165.902 315.375 165.613 315.442 165.35 315.571L161.424 317.837C161.329 317.876 161.247 317.942 161.19 318.028C161.132 318.113 161.101 318.214 161.101 318.317C161.101 318.42 161.132 318.521 161.19 318.606C161.247 318.692 161.329 318.758 161.424 318.797L161.971 319.114L159.984 320.16C159.744 320.285 159.773 320.371 159.984 320.343L163.478 320.016L167.606 322.397C167.869 322.526 168.158 322.593 168.451 322.593C168.744 322.593 169.033 322.526 169.296 322.397L173.222 320.122C173.322 320.093 173.411 320.035 173.477 319.955C173.543 319.875 173.582 319.777 173.591 319.673C173.599 319.57 173.576 319.466 173.524 319.377C173.471 319.287 173.393 319.215 173.299 319.171Z" fill="#EBEBEB"/>
<path d="M175.085 328.531L174.634 327.571C174.029 326.314 173.674 324.605 175.402 323.607C176.055 323.275 176.777 323.103 177.509 323.103C178.241 323.103 178.963 323.275 179.616 323.607C180.576 324.135 180.73 324.912 180.221 325.527C181.346 325.231 182.54 325.354 183.581 325.872C183.836 325.958 184.058 326.122 184.215 326.341C184.372 326.56 184.457 326.822 184.457 327.091C184.457 327.361 184.372 327.623 184.215 327.842C184.058 328.061 183.836 328.225 183.581 328.311C181.891 329.271 178.934 329.098 176.746 328.762L175.085 328.531Z" fill="#EBEBEB"/>
<path d="M150.384 324.23C151.17 323.833 152.038 323.626 152.918 323.626C153.799 323.626 154.667 323.833 155.453 324.23L233.501 369.293C234.902 370.099 234.902 371.414 233.501 372.221L217.574 381.418L134.477 333.418L150.384 324.23Z" fill="#EBEBEB"/>
<path d="M237.12 313.853L192.691 325.786L250.781 359.328C251.567 359.726 252.435 359.933 253.315 359.933C254.196 359.933 255.064 359.726 255.85 359.328L257.107 358.599L282.173 321.821L228.941 332.266L237.12 313.853Z" fill="#E0E0E0"/>
<path d="M258.998 288.048L238.56 276.24C237.774 275.843 236.906 275.636 236.026 275.636C235.145 275.636 234.277 275.843 233.491 276.24L210.643 289.44C211.69 291.427 213.85 293.28 217.123 294.883C226.723 299.472 242.352 299.472 251.981 294.883C256.013 292.963 258.346 290.544 258.998 288.048Z" fill="#E0E0E0"/>
<path opacity="0.2" d="M357.562 283.891L255.11 224.717C254.326 224.32 253.46 224.113 252.581 224.113C251.702 224.113 250.835 224.32 250.051 224.717L116.611 301.786C115.219 302.592 115.219 303.898 116.611 304.666L138.269 317.146L219.091 363.831C219.875 364.228 220.742 364.435 221.621 364.435C222.5 364.435 223.366 364.228 224.15 363.831L344.266 294.432L357.552 286.752C358.963 286.013 358.963 284.698 357.562 283.891Z" fill="white"/>
<path d="M357.811 283.469L273.101 234.509L255.36 224.295C254.501 223.855 253.55 223.625 252.586 223.625C251.621 223.625 250.67 223.855 249.811 224.295L116.371 301.363C115.991 301.51 115.664 301.768 115.433 302.104C115.202 302.44 115.079 302.838 115.079 303.245C115.079 303.652 115.202 304.05 115.433 304.386C115.664 304.722 115.991 304.98 116.371 305.127L138.029 317.607L218.88 364.32C219.738 364.762 220.689 364.992 221.654 364.992C222.619 364.992 223.571 364.762 224.429 364.32L344.534 294.922L357.83 287.242C358.21 287.093 358.536 286.834 358.765 286.497C358.995 286.161 359.118 285.763 359.118 285.355C359.118 284.948 358.995 284.55 358.765 284.213C358.536 283.877 358.21 283.617 357.83 283.469H357.811ZM357.322 286.397L344.026 294.077L223.92 363.475C223.209 363.83 222.425 364.015 221.63 364.015C220.836 364.015 220.052 363.83 219.341 363.475L138.518 316.8L116.87 304.32C116.639 304.261 116.434 304.126 116.288 303.938C116.141 303.749 116.062 303.517 116.062 303.279C116.062 303.04 116.141 302.808 116.288 302.619C116.434 302.431 116.639 302.296 116.87 302.237L250.31 225.168C251.022 224.815 251.806 224.632 252.6 224.632C253.394 224.632 254.178 224.815 254.89 225.168L272.64 235.392L357.35 284.352C357.582 284.411 357.787 284.546 357.933 284.735C358.079 284.923 358.159 285.155 358.159 285.394C358.159 285.633 358.079 285.864 357.933 286.053C357.787 286.242 357.582 286.376 357.35 286.435L357.322 286.397Z" fill="white"/>
<path d="M311.587 43.9104C312.998 43.0944 314.15 43.7568 314.15 45.3888V234.115C314.101 235.005 313.843 235.871 313.398 236.643C312.953 237.415 312.333 238.071 311.587 238.56L237.936 281.088L229.296 309.888C228.518 312.499 226.963 312.614 225.83 310.128L217.92 292.666L196.416 305.078C195.005 305.894 193.853 305.232 193.853 303.6V114.874C193.901 113.983 194.158 113.117 194.603 112.345C195.049 111.573 195.67 110.916 196.416 110.429L311.587 43.9104Z" fill="#FFA901"/>
<path d="M302.179 189.6C302.091 190.822 301.716 192.006 301.084 193.055C300.451 194.104 299.58 194.99 298.541 195.638L258.077 219.005C256.07 220.157 254.438 219.341 254.438 217.162C254.529 215.94 254.906 214.758 255.538 213.709C256.17 212.66 257.04 211.774 258.077 211.123L298.56 187.766C300.557 186.605 302.179 187.43 302.179 189.6Z" fill="white"/>
<path d="M294.72 212.937C294.63 214.159 294.253 215.342 293.621 216.391C292.989 217.44 292.119 218.325 291.082 218.976L257.472 238.406C255.466 239.568 253.843 238.742 253.843 236.563C253.932 235.343 254.306 234.162 254.937 233.115C255.567 232.067 256.436 231.183 257.472 230.534L291.12 211.104C293.126 209.942 294.72 210.768 294.72 212.937Z" fill="white"/>
<path d="M234.096 246.134L234.01 245.002C232.176 249.629 229.411 252.95 226.33 254.726C220.886 257.875 216.019 255.082 216.019 246.749C216.019 238.896 219.859 230.285 225.84 226.858C229.766 224.592 232.445 226.262 232.886 227.251V225.331C232.886 224.266 233.971 222.778 235.296 222.01C236.621 221.242 237.715 221.942 237.715 223.584V241.392C237.715 243.658 238.56 244.118 239.76 243.418C241.949 242.16 243.965 236.774 243.965 230.64C243.965 218.794 237.754 213.274 227.846 218.995C218.563 224.352 211.2 237.888 211.2 249.715C211.2 261.322 218.16 265.747 227.27 260.496C229.887 258.871 232.205 256.809 234.125 254.4C235.162 253.133 236.294 252.749 236.794 253.651C237.293 254.554 236.986 256.416 235.958 257.683C233.53 260.731 230.61 263.353 227.318 265.44C215.981 271.978 207.408 266.275 207.408 251.933C207.408 237.283 216.384 220.858 227.894 214.205C239.405 207.552 247.843 213.466 247.843 228.288C247.843 237.274 244.32 245.146 239.318 248.026C236.554 249.542 234.586 249.187 234.096 246.134ZM221.242 243.437C221.242 248.026 223.469 250.541 226.867 248.582C230.266 246.624 232.627 241.594 232.627 236.957C232.627 232.493 230.352 230.237 226.819 232.272C223.469 234.173 221.242 239.04 221.242 243.437Z" fill="white"/>
<path d="M253.978 104.64C273.859 93.1201 289.968 102.471 289.968 125.424C289.968 148.378 273.859 176.304 253.978 187.767C234.096 199.229 217.987 189.936 217.987 166.983C217.987 144.029 234.096 116.16 253.978 104.64Z" fill="white"/>
<path d="M253.978 104.64C273.859 93.1201 289.968 102.471 289.968 125.424C289.968 148.378 273.859 176.304 253.978 187.767C234.096 199.229 217.987 189.936 217.987 166.983C217.987 144.029 234.096 116.16 253.978 104.64Z" fill="#F5F5F5"/>
<mask id="mask0_216_618" style="mask-type:luminance" maskUnits="userSpaceOnUse" x="217" y="99" width="73" height="94">
<path d="M253.978 104.64C273.859 93.1201 289.968 102.471 289.968 125.424C289.968 148.378 273.859 176.304 253.978 187.767C234.096 199.229 217.987 189.936 217.987 166.983C217.987 144.029 234.096 116.16 253.978 104.64Z" fill="white"/>
</mask>
<g mask="url(#mask0_216_618)">
<path d="M240.854 135.12C239.205 135.405 237.731 136.321 236.746 137.674C234.979 139.949 235.344 143.194 236.746 150.499L242.208 149.664L240.854 135.12Z" fill="#263238"/>
<path d="M272.688 124.368C273.915 124.041 275.073 123.494 276.106 122.756C277.786 121.344 278.218 123.14 277.296 125.04C276.685 126.395 275.811 127.616 274.725 128.631C273.639 129.646 272.363 130.436 270.97 130.954C270.912 130.724 269.395 127.114 269.395 127.114L272.688 124.368Z" fill="#263238"/>
<path d="M243.994 172.8C243.994 172.8 233.818 179.367 231.61 181.68C229.402 183.994 228.49 191.204 227.674 200.026C227.674 200.026 239.261 204.912 257.434 195.917C275.606 186.922 277.248 179.808 277.248 179.808C277.248 179.808 274.896 169.124 274.022 166.157C272.918 162.404 270.787 159.696 258.394 165.322L243.994 172.8Z" fill="#263238"/>
<path d="M243.418 149.347C242.602 150.048 241.45 148.8 240.451 148.023C239.453 147.245 236.189 146.688 234.557 150.557C232.925 154.426 236.669 158.132 238.877 159.082C239.632 159.4 240.464 159.491 241.27 159.344C242.076 159.197 242.822 158.82 243.418 158.256L243.994 172.8C243.994 172.8 246.874 177.783 254.746 176.746C262.618 175.709 260.976 167.799 258.403 165.322V162.327C258.403 162.327 262.464 162.058 264.374 161.04C265.402 160.493 267.84 156.883 269.414 153.159C272.661 146.297 273.401 138.516 271.507 131.165C268.694 119.952 255.84 123.034 248.179 129.907C240.518 136.781 243.418 149.347 243.418 149.347Z" fill="#FFA8A7"/>
<path d="M274.906 113.117C274.214 110.852 273.792 111.255 268.234 115.162C263.988 118.151 259.251 120.37 254.237 121.719C250.32 122.909 244.963 123.85 242.208 127.479C241.023 129.039 240.419 130.964 240.499 132.922C240.266 132.705 239.982 132.55 239.674 132.471C238.32 132.106 236.659 133.095 235.958 134.688L240.758 135.965C240.384 138.73 239.309 147.264 240.48 148.013C241.488 148.656 243.034 150.816 243.446 150.701C244.819 150.308 245.366 144.221 246.115 140.535C246.931 136.34 247.248 134.775 248.755 134.602C253.65 133.83 258.469 132.632 263.155 131.021C268.339 128.996 269.827 127.277 269.827 127.277L272.592 125.52C273.826 123.731 274.67 121.702 275.068 119.565C275.467 117.428 275.412 115.231 274.906 113.117Z" fill="#263238"/>
<path d="M258.384 162.327C258.384 162.327 251.117 162.816 248.582 162.144C247.123 161.797 245.859 160.885 245.069 159.61C245.428 160.945 246.114 162.169 247.066 163.171C248.918 165.091 258.384 164.266 258.384 164.266V162.327Z" fill="#F28F8F"/>
<path d="M256.531 153.888L259.853 154.243C259.716 154.736 259.421 155.17 259.014 155.479C258.606 155.788 258.108 155.954 257.597 155.952C256.675 155.856 256.205 154.935 256.531 153.888Z" fill="#F28F8F"/>
<path d="M261.331 140.928L261.811 149.559L266.39 146.784L261.331 140.928Z" fill="#F28F8F"/>
<path d="M256.637 144C256.628 144.432 256.483 144.85 256.222 145.194C255.962 145.539 255.6 145.793 255.187 145.92C255.015 145.979 254.83 145.995 254.65 145.965C254.47 145.936 254.3 145.862 254.156 145.751C254.011 145.639 253.897 145.494 253.822 145.328C253.747 145.161 253.715 144.979 253.728 144.797C253.739 144.364 253.886 143.946 254.148 143.602C254.41 143.257 254.773 143.004 255.187 142.877C255.359 142.817 255.543 142.801 255.723 142.831C255.903 142.86 256.072 142.934 256.216 143.046C256.36 143.157 256.474 143.303 256.548 143.47C256.621 143.636 256.652 143.819 256.637 144Z" fill="#263238"/>
<path d="M255.091 138.903L251.981 141.456C251.779 140.993 251.742 140.476 251.875 139.989C252.007 139.502 252.302 139.075 252.71 138.778C252.863 138.608 253.052 138.475 253.264 138.388C253.475 138.301 253.702 138.262 253.93 138.274C254.159 138.286 254.381 138.348 254.582 138.457C254.783 138.566 254.957 138.718 255.091 138.903Z" fill="#263238"/>
<path d="M269.626 136.215L266.746 134.794C266.962 134.349 267.332 133.999 267.788 133.806C268.243 133.614 268.753 133.593 269.222 133.747C269.419 133.877 269.586 134.045 269.714 134.242C269.842 134.439 269.927 134.661 269.965 134.893C270.003 135.124 269.992 135.362 269.934 135.589C269.875 135.817 269.77 136.03 269.626 136.215Z" fill="#263238"/>
<path d="M268.8 140.323C268.788 140.754 268.642 141.171 268.382 141.515C268.122 141.859 267.762 142.114 267.35 142.243C267.178 142.302 266.993 142.318 266.813 142.288C266.633 142.259 266.464 142.185 266.319 142.074C266.174 141.963 266.06 141.817 265.985 141.651C265.91 141.484 265.878 141.302 265.891 141.12C265.902 140.688 266.049 140.269 266.311 139.925C266.573 139.58 266.937 139.327 267.35 139.2C267.522 139.14 267.707 139.125 267.886 139.154C268.066 139.184 268.236 139.257 268.38 139.369C268.524 139.48 268.637 139.626 268.711 139.793C268.784 139.959 268.815 140.142 268.8 140.323Z" fill="#263238"/>
</g>
</svg>
